<?xml version="1.0" encoding="UTF-8"?> <svg xmlns="http://www.w3.org/2000/svg" width="102" height="41" viewBox="0 0 102 41" fill="none"> <g clip-path="url(#clip0_0_0)"> <path d="M0 26.19H1.504V38.285H9.659V39.076H0V26.19Z" fill="white"></path> <path d="M21.1049 34.903L17.7719 27.779L14.1849 34.903H21.1049ZM21.4719 35.693H13.7829L12.0669 39.075H11.0779L17.7719 26.013H18.4359L24.7479 39.075H23.0529L21.4719 35.693Z" fill="white"></path> <path d="M23.1311 26.19H24.8401L30.1211 37.416L35.8261 26.19H36.8221L30.1421 39.259H29.4791L23.1311 26.19Z" fill="white"></path> <path d="M41.5171 26.19H40.0061V39.076H41.5171V26.19Z" fill="white"></path> <path d="M54.7631 34.903L51.4371 27.779L47.8431 34.903H54.7631ZM55.1301 35.693H47.4411L45.7321 39.075H44.7361L51.4371 26.013H52.0941L58.4491 39.075H56.7541L55.1301 35.693Z" fill="white"></path> <path d="M60.8359 26.19H62.3819L70.6499 36.604V26.19H71.8289V39.076H71.2569L62.0149 27.411V39.076H60.8359V26.19Z" fill="white"></path> <path d="M76.899 37.522C75.732 36.364 75.15 34.717 75.155 32.579C75.101 31.696 75.227 30.81 75.524 29.977C75.821 29.143 76.284 28.379 76.885 27.728C77.546 27.129 78.32 26.669 79.161 26.374C80.002 26.079 80.895 25.956 81.785 26.012C83.256 25.949 84.712 26.336 85.958 27.121C86.486 27.469 86.936 27.923 87.278 28.454C87.621 28.985 87.849 29.582 87.949 30.206H86.537C86.357 29.204 85.795 28.31 84.97 27.714C84.06 27.084 82.97 26.764 81.863 26.803C81.152 26.762 80.441 26.876 79.778 27.135C79.115 27.395 78.516 27.794 78.022 28.307C77.049 29.513 76.565 31.04 76.666 32.586C76.563 34.159 77.049 35.714 78.029 36.95C78.526 37.472 79.131 37.879 79.802 38.142C80.473 38.405 81.193 38.519 81.913 38.475C83.013 38.517 84.098 38.202 85.006 37.578C85.826 36.974 86.38 36.075 86.552 35.071H87.964C87.861 35.693 87.632 36.288 87.289 36.818C86.946 37.348 86.498 37.801 85.973 38.15C84.74 38.936 83.297 39.327 81.835 39.273C80.937 39.33 80.036 39.204 79.188 38.903C78.339 38.602 77.56 38.133 76.899 37.522Z" fill="white"></path> <path d="M90.9641 26.19H101.555V26.981H92.4961V31.768H100.503V32.544H92.4961V38.285H101.569V39.076H90.9781L90.9641 26.19Z" fill="white"></path> <mask id="mask0_27_76" style="mask-type:luminance" maskUnits="userSpaceOnUse" x="0" y="0" width="102" height="57"> <path d="M101.569 0H0V57H101.569V0Z" fill="white"></path> </mask> <g mask="url(#mask0_27_76)"> <path d="M38.4959 10.559C39.4509 10.128 40.2329 9.67699 41.0729 9.38299C41.6289 9.18099 42.1339 8.85499 42.5519 8.42699C42.9699 7.99999 43.2899 7.48199 43.4879 6.91199C44.2259 5.19599 45.1549 3.57399 46.2559 2.07899C46.9209 1.32399 47.6819 0.664992 48.5179 0.117992C48.8429 -0.157008 49.1579 0.0299917 49.2149 0.460992C49.4099 1.63099 49.2909 2.83299 48.8699 3.93899C48.4499 5.04499 47.7439 6.01099 46.8279 6.73599C46.4839 7.03999 46.1119 7.32399 45.7589 7.61799C45.7589 7.61799 45.7589 7.61799 45.7589 7.71599C47.3749 7.29299 49.0279 7.03299 50.6939 6.94099C50.9319 6.92599 51.1629 6.85299 51.3679 6.72599C51.5719 6.59999 51.7439 6.42399 51.8679 6.21499C52.1729 5.74399 52.4879 5.29299 52.8229 4.81299C53.4509 3.85599 54.2669 3.04399 55.2189 2.43099C55.4959 2.23499 55.8199 2.02899 56.1739 2.21499C56.5269 2.40099 56.3839 2.80299 56.3549 3.11699C56.2869 3.72399 56.0409 4.29499 55.6489 4.75399C55.1189 5.52499 54.4559 6.18899 53.6919 6.71499C54.8569 6.78399 56.0019 6.92099 57.1479 7.02899C57.2569 7.02299 57.3629 6.99399 57.4599 6.94399C57.5569 6.89299 57.6429 6.82199 57.7109 6.73499C58.5509 5.95099 59.4289 5.21499 60.3359 4.50999C60.7339 4.18499 61.2089 3.97499 61.7119 3.90099C62.2149 3.82699 62.7289 3.89199 63.1999 4.08899C63.5339 4.21599 63.8779 4.33399 64.1549 4.49099C64.4319 4.64799 64.5269 4.89299 64.1549 5.07899C63.1999 5.58899 62.3029 6.05899 61.3679 6.57899C60.8139 6.82599 60.2229 6.97199 59.6209 7.00999C59.2629 7.05499 58.9129 7.15099 58.5799 7.29399L60.6509 7.81399C61.6529 8.05899 62.6559 8.33399 63.6669 8.54899C64.7699 8.82899 65.8139 9.30999 66.7499 9.97099C66.8839 10.059 67.0459 10.147 67.0169 10.344C66.9879 10.54 66.8169 10.569 66.6639 10.609C65.9779 10.837 65.2539 10.921 64.5349 10.854C64.3549 10.847 64.1809 10.788 64.0319 10.684C63.8829 10.58 63.7659 10.435 63.6949 10.265C63.5089 9.82299 63.2139 9.43899 62.8389 9.14999C62.4639 8.86099 62.0219 8.67799 61.5569 8.61799C61.0609 8.52999 60.6019 8.37299 60.1059 8.25499C60.1059 8.30399 60.1059 8.33299 60.1059 8.34299C60.8219 9.53899 61.3659 10.823 62.0149 12.068C62.1009 12.225 62.1869 12.401 62.0629 12.558C61.9389 12.715 61.7859 12.666 61.6239 12.646C61.2029 12.629 60.7979 12.476 60.4669 12.208C60.1359 11.94 59.8959 11.572 59.7819 11.156C59.5319 10.499 59.3439 9.81999 59.2189 9.12699C59.0759 8.14699 58.8179 7.94099 57.9019 7.78399C56.9859 7.62699 56.1459 7.50899 55.2579 7.39199C54.9849 7.37599 54.7099 7.37599 54.4369 7.39199C55.3919 8.05899 55.5919 9.16699 56.2789 9.92099C56.7329 10.411 57.2349 10.851 57.7779 11.235L57.9979 11.382C58.1699 11.5 58.3889 11.666 58.3129 11.853C58.2369 12.04 57.9789 12.098 57.7399 12.049C57.4589 11.991 57.1759 11.949 56.8899 11.922C56.3769 11.884 55.8879 11.681 55.4939 11.341C55.0999 11.001 54.8199 10.542 54.6949 10.03C54.5649 9.51599 54.3859 9.01699 54.1599 8.53999C53.9959 8.14799 53.7069 7.82599 53.3419 7.62399C52.9759 7.42299 52.5549 7.35499 52.1459 7.43199C51.1339 7.50999 50.1129 7.51999 49.1009 7.64799C48.9409 7.63999 48.7819 7.68799 48.6519 7.78499C49.1769 7.91199 49.6929 8.02999 50.2079 8.16699C50.5229 8.24899 50.8159 8.39999 51.0679 8.60999C51.3199 8.81999 51.5249 9.08299 51.6679 9.38299C51.9349 9.88299 52.1929 10.363 52.4509 10.903C52.5249 11.031 52.5789 11.17 52.6129 11.315C52.6989 11.707 52.6129 11.864 52.2029 11.766C51.5249 11.65 50.9029 11.305 50.4369 10.786C49.6099 9.82099 48.6119 9.02599 47.4969 8.44299C47.0499 8.21999 46.5369 8.18499 46.0649 8.34499C44.2519 8.76199 42.4929 9.39699 40.8239 10.237C40.9289 10.355 41.0439 10.296 41.1489 10.296L42.7809 10.247C44.5339 10.204 46.2349 10.861 47.5249 12.08C47.7809 12.296 47.9919 12.563 48.1469 12.864C48.3009 13.165 48.3949 13.495 48.4229 13.835C48.4429 14.368 48.6229 14.882 48.9379 15.306C49.0529 15.473 49.1859 15.708 49.0719 15.865C48.9569 16.022 48.6519 15.983 48.4419 15.865C47.2299 15.081 45.9979 14.306 44.7479 13.6C43.6589 12.97 42.5189 12.438 41.3399 12.012C41.2409 11.986 41.1449 11.95 41.0539 11.904C39.6129 10.982 38.2949 11.453 37.0449 12.316C36.2569 12.958 35.5169 13.659 34.8299 14.414C34.6099 14.62 34.3429 14.963 34.0849 14.689C33.8269 14.414 34.1999 14.179 34.3809 13.964C34.8459 13.4 35.3639 12.884 35.9269 12.425C36.3799 12.061 36.7499 11.599 37.0109 11.073C37.2719 10.546 37.4159 9.96699 37.4349 9.37599C37.5589 7.86599 37.7019 6.34699 37.9599 4.85599C37.9879 4.60799 38.0459 4.36399 38.1319 4.13099C38.1809 4.00899 38.2619 3.90299 38.3649 3.82299C38.4679 3.74299 38.5899 3.69499 38.7179 3.67999C38.8459 3.66499 38.9749 3.68799 39.0919 3.74299C39.2089 3.79799 39.3089 3.88499 39.3829 3.99299C39.4559 4.08699 39.5139 4.19299 39.5549 4.30699C40.0869 5.89499 40.0869 7.62099 39.5549 9.20899C39.4309 9.47599 39.2669 9.71999 39.0679 9.93399L38.4959 10.559Z" fill="white"></path> </g> </g> <defs> <clipPath id="clip0_27_76"> <rect width="102" height="41" fill="white"></rect> </clipPath> </defs> </svg> 