<svg width="36" height="36" viewBox="0 0 36 36" fill="none" xmlns="http://www.w3.org/2000/svg">
<path fill-rule="evenodd" clip-rule="evenodd" d="M23.7072 0.661148H12.8812C3.0009 0.661148 0.661499 3.00055 0.661499 12.8808V23.7068C0.661499 33.587 3.0009 35.9265 12.8812 35.9265H23.7072C33.5874 35.9265 35.9268 33.587 35.9268 23.7068V12.8808C35.9268 3.00055 33.5874 0.661148 23.7072 0.661148ZM28.7593 11.8605C29.5308 11.8605 29.705 12.2587 29.5308 12.8062C29.2589 14.0609 27.0012 17.3895 26.3019 18.4205C26.169 18.6164 26.0923 18.7293 26.0963 18.7293C25.8226 19.1773 25.723 19.3764 26.0963 19.8741C26.2313 20.0582 26.5174 20.339 26.8445 20.6599C27.1809 20.99 27.5605 21.3625 27.8633 21.7158C28.9584 22.9601 29.8045 24.0055 30.0285 24.7271C30.2276 25.4489 29.8792 25.8222 29.1326 25.8222H26.5692C25.8899 25.8222 25.5397 25.4321 24.7934 24.6006C24.4734 24.2442 24.0806 23.8065 23.5579 23.2837C22.0397 21.8153 21.3678 21.6162 20.9945 21.6162C20.4718 21.6162 20.3225 21.7407 20.3225 22.4873V24.8018C20.3225 25.424 20.1234 25.7973 18.4808 25.7973C15.7681 25.7973 12.7568 24.1547 10.6413 21.0936C7.45573 16.6139 6.5847 13.2293 6.5847 12.5573C6.5847 12.1839 6.70914 11.8355 7.45573 11.8355H10.0441C10.6911 11.8355 10.9399 12.1093 11.1889 12.8311C12.4581 16.4895 14.5735 19.6999 15.4446 19.6999C15.7681 19.6999 15.9174 19.5506 15.9174 18.7293V14.9465C15.856 13.8712 15.4817 13.4027 15.2041 13.0554C15.032 12.8399 14.8971 12.671 14.8971 12.4329C14.8971 12.1342 15.1459 11.8355 15.5441 11.8355H19.5759C20.1234 11.8355 20.3225 12.1342 20.3225 12.7812V17.8832C20.3225 18.4307 20.5465 18.6298 20.7207 18.6298C21.0442 18.6298 21.318 18.4307 21.9152 17.8334C23.7569 15.7677 25.076 12.5821 25.076 12.5821C25.2502 12.2088 25.5488 11.8605 26.1959 11.8605H28.7593Z" fill="white"/>
</svg>
