<svg width="36" height="36" viewBox="0 0 36 36" fill="none" xmlns="http://www.w3.org/2000/svg">
<path fill-rule="evenodd" clip-rule="evenodd" d="M18 0C8.05887 0 0 8.05887 0 18C0 27.9411 8.05887 36 18 36C27.9411 36 36 27.9411 36 18C36 8.05887 27.9411 0 18 0ZM25.7532 14.0024H20.6687V12.5457H25.7532V14.0024ZM25.305 15.2252C24.6932 14.9546 24.0057 14.8187 23.2414 14.8187C21.9556 14.8187 20.9114 15.2208 20.1043 16.0193C19.2994 16.82 18.8964 17.9705 18.8964 19.4706C18.8964 21.0699 19.3411 22.2259 20.2363 22.9353C21.127 23.6458 22.1577 24 23.3261 24C24.7406 24 25.8413 23.579 26.627 22.7382C27.1304 22.2081 27.4149 21.6858 27.477 21.1735H25.1346C24.9991 21.4274 24.8411 21.6256 24.6616 21.7693C24.3353 22.0332 23.9097 22.1658 23.3893 22.1658C22.8949 22.1658 22.4738 22.0566 22.1238 21.8394C21.5459 21.4909 21.2433 20.8817 21.2049 20.0141H27.5978C27.608 19.2668 27.5831 18.6922 27.521 18.2957C27.4149 17.6174 27.1824 17.0205 26.82 16.506C26.4226 15.9224 25.918 15.4948 25.305 15.2252ZM14.1336 12C15.5808 12.0212 16.6047 12.4366 17.2087 13.2473C17.571 13.7452 17.7528 14.3399 17.7528 15.0337C17.7528 15.7476 17.571 16.3233 17.2042 16.7577C16.9987 17.0005 16.6973 17.2232 16.2988 17.4237C16.9039 17.6419 17.3599 17.9861 17.6704 18.4572C17.9774 18.9271 18.1321 19.4996 18.1321 20.1722C18.1321 20.8661 17.956 21.4886 17.6027 22.0388C17.3791 22.403 17.0992 22.7103 16.7628 22.9598C16.3846 23.246 15.9387 23.4409 15.4228 23.5478C14.9069 23.6536 14.3492 23.7049 13.7464 23.7049H8.4V12H14.1336Z" fill="#CD5888"/>
<path fill-rule="evenodd" clip-rule="evenodd" d="M10.7651 14.0325H13.348C13.9159 14.0325 14.3832 14.0937 14.7512 14.2151C15.1757 14.3911 15.3879 14.7508 15.3879 15.2976C15.3879 15.7876 15.2265 16.1307 14.9059 16.3244C14.583 16.5182 14.1642 16.6151 13.6506 16.6151H10.7651V14.0325ZM21.8734 17.1809C22.1973 16.8512 22.6557 16.6864 23.2427 16.6864C23.7846 16.6864 24.2372 16.8412 24.6053 17.1519C24.9688 17.4649 25.1742 17.9192 25.216 18.5206H21.2615C21.345 17.9571 21.5494 17.5105 21.8734 17.1809ZM13.6867 18.5518H10.7651V21.6735H13.646C14.1608 21.6735 14.5627 21.6044 14.8483 21.4675C15.3687 21.2113 15.6284 20.7257 15.6284 20.0063C15.6284 19.396 15.3778 18.9784 14.8731 18.7501C14.5909 18.6231 14.1947 18.5563 13.6867 18.5518Z" fill="#CD5888"/>
</svg>
