<?xml version="1.0" encoding="UTF-8"?> <svg xmlns="http://www.w3.org/2000/svg" id="_Слой_2" data-name="Слой 2" viewBox="0 0 1169.74 159.42"> <defs> <style> .cls-1 { fill: #FFFFFF; } .cls-2 { fill: #FFFFFF; } </style> </defs> <g id="_Слой_1-2" data-name="Слой 1"> <g> <path class="cls-2" d="M168.3,159.41H98.01c13.21-6.78,28.27-16.51,41.34-28.93l28.96,28.93Z"></path> <path class="cls-2" d="M1169.74,144.99c0-7.97-6.46-14.42-14.42-14.42s-14.43,6.45-14.43,14.42,6.46,14.42,14.43,14.42,14.42-6.45,14.42-14.42"></path> <path class="cls-1" d="M279.47,39.27h-21.87l-53.76,119.49h22.86l11.78-27.65h59.75l11.96,27.65h23.21l-10.14-22.48-43.8-97.02Zm-33.47,74.43l22.37-52.24,22.54,52.24h-44.91Z"></path> <path class="cls-1" d="M453.77,140.01V39.26h-93.11v100.75h-17.22v18.76h127.54v-18.76h-17.22Zm-21.87,0h-49.38V58.04h49.38v81.96Z"></path> <path class="cls-1" d="M531.26,39.27l-53.78,119.49h22.88l11.78-27.65h59.75l11.94,27.65h23.22l-53.95-119.49h-21.85Zm-11.61,74.43l22.37-52.24,22.52,52.24h-44.89Z"></path> <polygon class="cls-1" points="625.49 158.77 647.35 158.77 647.35 58.06 709.32 58.06 709.32 158.77 731.17 158.77 731.17 39.27 625.49 39.27 625.49 158.77"></polygon> <polygon class="cls-1" points="750.45 58.06 789.88 58.06 789.88 158.77 811.91 158.77 811.91 58.06 851.52 58.06 851.52 39.27 750.45 39.27 750.45 58.06"></polygon> <polygon class="cls-1" points="892.65 124.13 892.65 39.27 870.8 39.27 870.8 158.77 891.47 158.77 955.65 74.09 955.65 158.77 977.51 158.77 977.51 39.27 956.85 39.27 892.65 124.13"></polygon> <path class="cls-1" d="M1107.08,107.14c-3.99-4.95-9.79-8.45-17.41-10.51,5.67-2.38,10.03-5.86,13.05-10.4,3.01-4.57,4.53-9.96,4.53-16.22,0-9.77-3.76-17.36-11.28-22.7-7.5-5.34-17.97-8.03-31.41-8.03h-53.42v119.5h56.67c14.69,0,25.89-2.9,33.64-8.7,7.73-5.8,11.61-13.94,11.61-24.42,0-7.41-2-13.56-5.97-18.51m-74.1-50.79h29.71c7.18,0,12.63,1.45,16.39,4.36,3.74,2.9,5.63,7.14,5.63,12.7s-1.89,9.79-5.63,12.65c-3.76,2.84-9.22,4.26-16.39,4.26h-29.71V56.35Zm34.16,85.36h-34.16v-35.18h34.16c15.69,0,23.55,5.8,23.55,17.41s-7.86,17.77-23.55,17.77"></path> <path class="cls-2" d="M163.98,22.73v.1c-.1,.4-.1,.6-.2,.9-12.19,119.59-111.95,133.48-134.57,135.47L0,133.78c4.23,.17,125.44-.23,137.86-133.78l26.12,22.73Z"></path> </g> </g> </svg> 