<svg width="120" height="120" viewBox="0 0 120 120" fill="none" xmlns="http://www.w3.org/2000/svg">
<path fill-rule="evenodd" clip-rule="evenodd" d="M98.9497 60.2592L59.7408 21.0503C50.3758 11.6853 34.3848 15.9701 30.957 28.7629L16.6056 82.3233C13.1777 95.1161 24.884 106.822 37.6768 103.394L91.2371 89.043C104.03 85.6152 108.315 69.6242 98.9497 60.2592ZM60.4479 20.3432C50.5386 10.4339 33.6181 14.9677 29.9911 28.5041L15.6396 82.0645C12.0126 95.6008 24.3992 107.987 37.9356 104.36L91.496 90.0089C105.032 86.3819 109.566 69.4614 99.6568 59.5521L60.4479 20.3432Z" fill="white"/>
<path fill-rule="evenodd" clip-rule="evenodd" d="M40.2301 93.0107L88.1413 86.4561C93.5122 84.99 96.6695 80.4657 97.6021 75.2103C98.5419 69.9147 97.1757 64.0758 93.7009 60.2868C90.1124 56.3737 85.6478 53.9305 81.5891 51.7974C81.3979 51.6969 81.2072 51.5969 81.0174 51.4973C79.2153 50.5522 77.4877 49.6462 76.0238 48.6945C74.4079 47.6439 73.0058 46.472 72.1393 45.0097C68.1522 38.2815 65.0139 33.5694 62.8773 30.5452C61.809 29.0331 60.9912 27.943 60.4429 27.2338C60.1687 26.8792 59.962 26.6199 59.825 26.4507C59.7565 26.366 59.7055 26.3039 59.6722 26.2637L59.6505 26.2377C51.5853 18.217 37.8522 21.9098 34.9054 32.9073L22.4425 79.4197C21.7163 82.1298 22.0559 84.3595 23.0185 86.1826C23.9928 88.0277 25.6473 89.5327 27.6649 90.6816C31.7361 93 37.0052 93.713 40.1918 93.0191L40.2301 93.0107ZM60.3885 25.5615C51.7832 16.9561 37.0893 20.8934 33.9395 32.6485L21.4766 79.1609C18.3268 90.916 33.4996 95.4999 40.4046 93.9962L88.3405 87.4382C100.096 84.2884 101.876 67.7219 94.4379 59.6109C90.5443 55.3652 85.6748 52.811 81.4877 50.6147C77.6757 48.6153 74.4292 46.9124 72.9996 44.4999C64.9996 30.9999 60.3885 25.5615 60.3885 25.5615Z" fill="white"/>
<path fill-rule="evenodd" clip-rule="evenodd" d="M83.2175 82.0638C92.8362 79.4865 95.2482 66.3352 88.2068 59.2938C84.7529 55.8399 81.4132 54.3952 78.2066 53.0081C74.876 51.5674 71.689 50.1887 68.6667 46.6852C66.7387 44.4501 66.2459 42.6057 65.7249 40.6553C65.0482 38.1224 64.3237 35.4107 60.3455 31.4325C53.3041 24.3911 41.2807 27.6128 38.7033 37.2316L28.5054 75.2908C25.9281 84.9095 33.4998 90.0001 44.9998 88.5001L83.2175 82.0638ZM44.8522 87.5109C39.2465 88.2388 34.7919 87.3319 32.0789 85.269C29.4501 83.27 28.2682 80.0398 29.4713 75.5496L39.6693 37.4904C42.0474 28.6152 53.1413 25.6426 59.6384 32.1396C63.0213 35.5225 63.9156 37.8935 64.5222 40.0441C64.6025 40.3289 64.6786 40.6148 64.7552 40.9025C65.2782 42.8676 65.8249 44.9218 67.9095 47.3383C71.0356 50.9623 74.3476 52.4276 77.6235 53.8454C77.6768 53.8685 77.7301 53.8915 77.7834 53.9146C80.9904 55.3021 84.1815 56.6827 87.4997 60.0009C90.7551 63.2563 91.8458 67.9504 90.9803 72.151C90.1196 76.3281 87.3559 79.9002 83.0035 81.0857L44.8522 87.5109Z" fill="white"/>
<path fill-rule="evenodd" clip-rule="evenodd" d="M46.2605 83.0287L78.0261 75.8981C79.7005 75.4454 80.7586 74.6294 81.3882 73.647C82.0285 72.6478 82.2892 71.3759 82.1752 69.9217C81.945 66.9868 80.1973 63.5344 77.5585 60.8956C75.0111 58.3482 73.2341 57.1807 71.5387 56.0669C71.4442 56.0048 71.3499 55.9429 71.2558 55.8809C69.421 54.6724 67.6544 53.4494 65.2423 50.6532C63.8633 49.0546 62.9684 47.7771 62.0962 46.5322C61.8433 46.1711 61.5923 45.8127 61.3319 45.4501C60.1758 43.8399 58.7689 42.0437 56.0449 39.3197C53.4283 36.703 50.8513 35.9627 48.6033 36.9048C46.2463 37.8926 43.8141 40.8814 41.9535 46.7999C40.0591 52.8254 39.0206 55.5213 38.0332 58.0618L37.9711 58.2217C37.0171 60.6759 36.0977 63.041 34.4539 68.2984C31.3034 78.3749 39.4759 84.8467 46.2407 83.034L46.2605 83.0287ZM78.2656 76.8692C85.8196 74.8451 83.7955 65.7184 78.2656 60.1885C75.6456 57.5685 73.8006 56.3564 72.0888 55.2318C70.1876 53.9828 68.4509 52.8418 65.9995 50C64.6564 48.443 63.7963 47.2154 62.9287 45.9772C61.5478 44.0064 60.148 42.0086 56.752 38.6126C51.2221 33.0827 44.7721 34.5 40.9995 46.5C39.0743 52.6234 38.0404 55.2834 37.0406 57.8553C36.0812 60.3234 35.1533 62.7106 33.4995 68C30.1224 78.8011 38.9455 86.0241 46.4995 84L78.2656 76.8692Z" fill="white"/>
<path d="M47.7152 48.3741C48.313 46.1434 51.1013 45.3962 52.7343 47.0292L71.1055 65.4004C72.7385 67.0334 71.9914 69.8218 69.7606 70.4195L44.6652 77.1438C42.4345 77.7415 40.3932 75.7003 40.9909 73.4696L47.7152 48.3741Z" fill="white"/>
</svg>
