<svg width="400" height="120" viewBox="0 0 400 120" fill="none" xmlns="http://www.w3.org/2000/svg">
<g clip-path="url(#clip0_2598_2735)">
<path d="M7.02246 41.7747H18.3445C20.8976 41.7747 22.8441 41.9715 24.1835 42.3653C25.9832 42.8996 27.525 43.8488 28.8085 45.2128C30.0921 46.577 31.0687 48.2503 31.7384 50.2332C32.4081 52.2019 32.743 54.6348 32.743 57.5316C32.743 60.077 32.429 62.2708 31.8013 64.1128C31.0339 66.3629 29.9386 68.184 28.5156 69.5761C27.4413 70.6309 25.9902 71.4535 24.1626 72.0441C22.7952 72.4801 20.9674 72.698 18.6793 72.698H7.02246V41.7747ZM13.2172 47.0059V67.4878H17.8422C19.5723 67.4878 20.821 67.3894 21.5884 67.1926C22.5929 66.9395 23.4231 66.5106 24.0787 65.9059C24.7484 65.3011 25.2926 64.3098 25.7112 62.9316C26.1297 61.5395 26.3391 59.648 26.3391 57.2574C26.3391 54.8668 26.1297 53.0316 25.7112 51.752C25.2926 50.4723 24.7066 49.4738 23.9532 48.7566C23.1998 48.0395 22.2441 47.5543 21.0861 47.3012C20.221 47.1043 18.5258 47.0059 16.0006 47.0059H13.2172Z" fill="white"/>
<path d="M65.6836 72.698H58.9447L56.2659 65.6738H44.002L41.4698 72.698H34.8984L46.8482 41.7747H53.3988L65.6836 72.698ZM54.2777 60.4637L50.0503 48.9887L45.9065 60.4637H54.2777Z" fill="white"/>
<path d="M68.9902 72.698V41.7747H78.9311C82.6981 41.7747 85.1536 41.9292 86.2977 42.2387C88.0557 42.7028 89.5276 43.7153 90.7135 45.2762C91.8995 46.823 92.4924 48.8269 92.4924 51.2878C92.4924 53.1863 92.1506 54.7824 91.467 56.0761C90.7833 57.3699 89.9113 58.3895 88.8509 59.1347C87.8046 59.866 86.7372 60.3512 85.6489 60.5903C84.17 60.8855 82.0284 61.0332 79.224 61.0332H75.1849V72.698H68.9902ZM75.1849 47.0059V55.7809H78.5753C81.0169 55.7809 82.6492 55.6192 83.4724 55.2957C84.2956 54.9723 84.9375 54.466 85.3978 53.777C85.8722 53.0879 86.1094 52.2863 86.1094 51.3722C86.1094 50.2473 85.7815 49.3191 85.1258 48.5878C84.47 47.8567 83.6399 47.3996 82.6353 47.2168C81.8958 47.0761 80.4099 47.0059 78.1777 47.0059H75.1849Z" fill="white"/>
<path d="M97.5781 72.698V41.7747H107.519C111.286 41.7747 113.742 41.9292 114.886 42.2387C116.644 42.7028 118.116 43.7153 119.301 45.2762C120.487 46.823 121.08 48.8269 121.08 51.2878C121.08 53.1863 120.739 54.7824 120.054 56.0761C119.371 57.3699 118.499 58.3895 117.438 59.1347C116.392 59.866 115.325 60.3512 114.237 60.5903C112.758 60.8855 110.616 61.0332 107.812 61.0332H103.773V72.698H97.5781ZM103.773 47.0059V55.7809H107.163C109.605 55.7809 111.237 55.6192 112.06 55.2957C112.884 54.9723 113.526 54.466 113.985 53.777C114.46 53.0879 114.697 52.2863 114.697 51.3722C114.697 50.2473 114.37 49.3191 113.714 48.5878C113.059 47.8567 112.228 47.3996 111.223 47.2168C110.484 47.0761 108.998 47.0059 106.766 47.0059H103.773Z" fill="white"/>
<path d="M150.652 72.698H143.913L141.235 65.6738H128.971L126.438 72.698H119.867L131.817 41.7747H138.367L150.652 72.698ZM139.247 60.4637L135.018 48.9887L130.876 60.4637H139.247Z" fill="white"/>
<path d="M153.937 41.7747H165.258C167.813 41.7747 169.759 41.9715 171.098 42.3653C172.898 42.8996 174.44 43.8488 175.723 45.2128C177.006 46.577 177.983 48.2503 178.652 50.2332C179.322 52.2019 179.657 54.6348 179.657 57.5316C179.657 60.077 179.343 62.2708 178.715 64.1128C177.948 66.3629 176.854 68.184 175.43 69.5761C174.356 70.6309 172.905 71.4535 171.077 72.0441C169.709 72.4801 167.882 72.698 165.593 72.698H153.937V41.7747ZM160.131 47.0059V67.4878H164.758C166.487 67.4878 167.735 67.3894 168.502 67.1926C169.507 66.9395 170.337 66.5106 170.994 65.9059C171.663 65.3011 172.207 64.3098 172.625 62.9316C173.044 61.5395 173.253 59.648 173.253 57.2574C173.253 54.8668 173.044 53.0316 172.625 51.752C172.207 50.4723 171.621 49.4738 170.868 48.7566C170.115 48.0395 169.159 47.5543 168 47.3012C167.136 47.1043 165.441 47.0059 162.914 47.0059H160.131Z" fill="white"/>
<path d="M192.759 72.698L181.792 41.7747H188.51L196.275 64.6613L203.788 41.7747H210.359L199.372 72.698H192.759Z" fill="white"/>
<path d="M213.52 72.698V41.7747H236.268V47.0059H219.714V53.8613H235.117V59.0715H219.714V67.4878H236.854V72.698H213.52Z" fill="white"/>
<path d="M242.17 72.698V41.7747H248.197L260.754 62.4253V41.7747H266.509V72.698H260.295L247.925 52.5324V72.698H242.17Z" fill="white"/>
<path d="M279.988 72.698V47.0059H270.884V41.7747H295.265V47.0059H286.182V72.698H279.988Z" fill="white"/>
<path d="M299.241 41.7747H305.436V58.523C305.436 61.1809 305.512 62.9035 305.666 63.691C305.931 64.9566 306.558 65.9761 307.549 66.7497C308.554 67.509 309.922 67.8887 311.651 67.8887C313.409 67.8887 314.734 67.5301 315.627 66.8128C316.521 66.0817 317.058 65.1887 317.239 64.134C317.421 63.0793 317.511 61.3285 317.511 58.8816V41.7747H323.705V58.0168C323.705 61.7293 323.538 64.3519 323.203 65.8847C322.868 67.4176 322.248 68.7113 321.341 69.766C320.448 70.8207 319.248 71.6645 317.741 72.2972C316.234 72.9161 314.267 73.2253 311.84 73.2253C308.909 73.2253 306.684 72.8878 305.164 72.2128C303.657 71.5238 302.464 70.6379 301.585 69.5551C300.707 68.4582 300.127 67.3121 299.848 66.1168C299.443 64.3449 299.241 61.7293 299.241 58.2699V41.7747Z" fill="white"/>
<path d="M330.277 72.698V41.7747H343.315C346.594 41.7747 348.973 42.0559 350.451 42.6184C351.945 43.1668 353.137 44.1512 354.03 45.5715C354.924 46.9917 355.37 48.6161 355.37 50.4441C355.37 52.7645 354.693 54.684 353.339 56.2028C351.986 57.7074 349.964 58.6567 347.27 59.0503C348.61 59.8379 349.712 60.7027 350.577 61.6449C351.456 62.5871 352.635 64.2605 354.113 66.6653L357.86 72.698H350.451L345.972 65.9691C344.383 63.5645 343.294 62.0527 342.708 61.434C342.122 60.8012 341.501 60.3723 340.845 60.1472C340.19 59.9083 339.151 59.7886 337.727 59.7886H336.472V72.698H330.277ZM336.472 54.8528H341.054C344.026 54.8528 345.883 54.7261 346.622 54.473C347.361 54.2199 347.94 53.784 348.359 53.1653C348.777 52.5464 348.986 51.773 348.986 50.8449C348.986 49.8043 348.707 48.9676 348.149 48.3347C347.605 47.6879 346.831 47.2801 345.826 47.1113C345.324 47.041 343.817 47.0059 341.306 47.0059H336.472V54.8528Z" fill="white"/>
<path d="M361.229 72.698V41.7747H383.978V47.0059H367.424V53.8613H382.827V59.0715H367.424V67.4878H384.564V72.698H361.229Z" fill="white"/>
<path d="M389.776 72.698V66.7707H395.656V72.698H389.776Z" fill="white"/>
</g>
<defs>
<clipPath id="clip0_2598_2735">
<rect width="400" height="120" fill="white"/>
</clipPath>
</defs>
</svg>
