<svg width="120" height="120" viewBox="0 0 120 120" fill="none" xmlns="http://www.w3.org/2000/svg">
<g clip-path="url(#clip0_2597_1755)">
<path d="M85.6869 27.1936C80.9888 23.129 75.116 20.2258 68.0688 18.1936C61.3152 16.1613 53.0935 15 44.2844 15H20.5V61.7419H41.0544V105H55.1489C60.728 105 66.0134 104.129 71.2988 102.387C76.5843 100.645 81.2824 98.3226 85.3932 95.1291C93.615 89.0323 98.6068 80.6129 99.4877 71.3225V58.8387C99.7814 45.7742 94.7896 34.742 85.6869 27.1936ZM80.1079 70.4516C77.7587 60.5807 66.8943 55.9355 53.3871 55.9355H27.2536V21.0968H44.8717C72.4733 21.0968 87.7424 31.5484 92.4405 47.2258C93.0278 48.9677 93.3214 50.7097 93.615 52.7419C93.9087 54.7742 94.2023 56.8064 94.2023 59.1291V70.1613L93.9087 70.4516H80.1079Z" fill="white"/>
</g>
<defs>
<clipPath id="clip0_2597_1755">
<rect width="120" height="120" fill="white"/>
</clipPath>
</defs>
</svg>
