<svg width="200" height="120" viewBox="0 0 200 120" fill="none" xmlns="http://www.w3.org/2000/svg">
<path d="M81.3125 77.7943L28.6995 47.4156C26.9953 46.4226 25.1118 45.776 23.157 45.5128C21.2023 45.2495 19.2148 45.3749 17.3086 45.8816C15.4024 46.3883 13.615 47.2665 12.049 48.4656C10.483 49.6648 9.1692 51.1614 8.18299 52.8695C7.19679 54.5777 6.55757 56.4637 6.30204 58.4195C6.04651 60.3753 6.17969 62.3623 6.69393 64.2665C7.20817 66.1706 8.09335 67.9545 9.29869 69.5158C10.504 71.0771 12.0058 72.3849 13.7178 73.3644L66.3307 103.743C69.7707 105.711 73.8503 106.236 77.6764 105.203C81.5025 104.17 84.7634 101.662 86.745 98.2301C88.7266 94.7979 89.2675 90.7204 88.2493 86.8902C87.2311 83.0601 84.7368 79.7894 81.3125 77.7943V77.7943Z" fill="white"/>
<path d="M186.239 47.4156L133.626 17.0368C131.922 16.0439 130.039 15.3973 128.084 15.134C126.129 14.8708 124.142 14.9961 122.235 15.5029C120.329 16.0096 118.542 16.8877 116.976 18.0869C115.41 19.2861 114.096 20.7827 113.11 22.4908C112.124 24.1989 111.484 26.085 111.229 28.0408C110.973 29.9966 111.106 31.9836 111.621 33.8877C112.135 35.7919 113.02 37.5758 114.225 39.1371C115.431 40.6983 116.933 42.0062 118.645 42.9857L171.257 73.3644C174.697 75.3325 178.777 75.8573 182.603 74.8241C186.429 73.7908 189.69 71.2836 191.672 67.8514C193.653 64.4192 194.194 60.3417 193.176 56.5115C192.158 52.6814 189.664 49.4107 186.239 47.4156V47.4156Z" fill="white"/>
<path d="M169.166 76.9715L144.616 62.7973L118.645 77.7944C116.933 78.7738 115.431 80.0817 114.225 81.643C113.02 83.2042 112.135 84.9881 111.621 86.8923C111.106 88.7965 110.973 90.7835 111.229 92.7393C111.484 94.695 112.124 96.5811 113.11 98.2893C114.096 99.9974 115.41 101.494 116.976 102.693C118.542 103.892 120.329 104.77 122.235 105.277C124.142 105.784 126.129 105.909 128.084 105.646C130.039 105.383 131.922 104.736 133.626 103.743L175.926 79.3249C173.544 78.9741 171.25 78.1755 169.166 76.9715V76.9715Z" fill="white"/>
<path d="M30.7838 43.8086L55.3406 57.9828L81.3125 42.9857C83.0245 42.0062 84.5263 40.6983 85.7316 39.1371C86.937 37.5758 87.8221 35.7919 88.3364 33.8877C88.8506 31.9836 88.9838 29.9966 88.7283 28.0408C88.4727 26.085 87.8335 24.1989 86.8473 22.4908C85.8611 20.7827 84.5473 19.2861 82.9813 18.0869C81.4153 16.8877 79.628 16.0096 77.7218 15.5029C75.8156 14.9961 73.8281 14.8708 71.8733 15.134C69.9185 15.3973 68.035 16.0439 66.3308 17.0368L24.0312 41.4552C26.4103 41.8069 28.7014 42.6054 30.7838 43.8086V43.8086Z" fill="white"/>
</svg>
