<svg width="442" height="120" viewBox="0 0 442 120" fill="none" xmlns="http://www.w3.org/2000/svg">
<g clip-path="url(#clip0_2597_1686)">
<path d="M130.544 80.2623C132.04 80.2623 133.362 80.1241 134.492 79.8478C135.605 79.5714 136.666 79.2087 137.692 78.725V72.2303H133.188C132.753 72.2303 132.423 72.1094 132.179 71.8848C131.936 71.643 131.796 71.3494 131.796 71.0039V67.2556H143.76V81.696C142.839 82.3524 141.9 82.9224 140.909 83.4233C139.917 83.907 138.874 84.3215 137.744 84.6152C136.631 84.9261 135.414 85.1679 134.161 85.3234C132.892 85.4788 131.518 85.5479 130.023 85.5479C127.414 85.5479 124.997 85.0988 122.789 84.2006C120.58 83.2851 118.685 82.0415 117.068 80.4178C115.468 78.8114 114.216 76.8768 113.311 74.6485C112.407 72.4203 111.955 69.9675 111.955 67.3075C111.955 64.6474 112.407 62.1601 113.277 59.9146C114.146 57.669 115.398 55.7517 117.015 54.128C118.615 52.5216 120.58 51.2607 122.893 50.3798C125.188 49.4816 127.78 49.0497 130.649 49.0497C133.518 49.0497 136.126 49.4816 138.283 50.3452C140.422 51.2089 142.248 52.3316 143.726 53.7135L141.795 56.719C141.413 57.3236 140.926 57.6345 140.283 57.6345C139.883 57.6345 139.483 57.5136 139.065 57.2372C138.526 56.9263 137.987 56.6154 137.431 56.3045C136.874 55.9936 136.266 55.7172 135.587 55.4926C134.927 55.2681 134.161 55.0781 133.327 54.9226C132.492 54.7672 131.518 54.7153 130.423 54.7153C128.649 54.7153 127.049 55.009 125.606 55.5963C124.18 56.1836 122.963 57.0299 121.954 58.1354C120.945 59.2409 120.163 60.5537 119.606 62.1082C119.067 63.6628 118.789 65.3901 118.789 67.2902C118.789 69.3457 119.085 71.1766 119.659 72.8003C120.232 74.3895 121.05 75.754 122.093 76.8595C123.137 77.965 124.389 78.8114 125.815 79.3814C127.258 79.9687 128.84 80.2623 130.544 80.2623Z" fill="white"/>
<path d="M149.272 85.1506V59.8109H152.872C153.498 59.8109 153.933 59.9318 154.194 60.1564C154.437 60.3809 154.611 60.7782 154.698 61.331L155.063 64.4056C155.967 62.8337 157.046 61.6073 158.263 60.6918C159.497 59.7936 160.871 59.3273 162.402 59.3273C163.654 59.3273 164.697 59.6209 165.532 60.1909L164.732 64.7683C164.68 65.062 164.575 65.2692 164.419 65.3901C164.245 65.5111 164.036 65.5629 163.741 65.5629C163.497 65.5629 163.149 65.5111 162.732 65.3901C162.297 65.2692 161.723 65.2174 161.01 65.2174C159.741 65.2174 158.645 65.5629 157.724 66.2538C156.82 66.962 156.054 67.9811 155.411 69.3284V85.0988H149.272V85.1506Z" fill="white"/>
<path d="M175.861 52.4353C175.861 52.9708 175.757 53.4544 175.548 53.9208C175.34 54.3699 175.061 54.7844 174.696 55.1299C174.331 55.4754 173.914 55.7517 173.444 55.959C172.957 56.1663 172.453 56.2699 171.896 56.2699C171.34 56.2699 170.87 56.1663 170.401 55.959C169.931 55.7517 169.514 55.4754 169.166 55.1299C168.818 54.7844 168.54 54.3699 168.332 53.9208C168.123 53.4544 168.019 52.9708 168.019 52.4353C168.019 51.8998 168.123 51.3816 168.332 50.9152C168.54 50.4316 168.818 50.017 169.166 49.6716C169.514 49.3261 169.931 49.0497 170.401 48.8425C170.87 48.6352 171.375 48.5488 171.896 48.5488C172.418 48.5488 172.957 48.6352 173.444 48.8425C173.914 49.0497 174.348 49.3261 174.696 49.6716C175.044 50.017 175.322 50.4316 175.548 50.9152C175.757 51.3816 175.861 51.8825 175.861 52.4353ZM174.957 59.8282V85.1679H168.818V59.8282H174.957Z" fill="white"/>
<path d="M199.024 85.1506C198.224 85.1506 197.703 84.7879 197.459 84.0451L196.955 81.6096C196.433 82.1969 195.877 82.7497 195.285 83.216C194.712 83.6824 194.086 84.097 193.425 84.4424C192.747 84.8052 192.016 85.0643 191.251 85.2543C190.486 85.4443 189.651 85.5306 188.747 85.5306C187.356 85.5306 186.069 85.2543 184.904 84.6843C183.756 84.1142 182.748 83.2679 181.913 82.1796C181.078 81.0742 180.435 79.7269 179.983 78.1032C179.531 76.4968 179.287 74.6486 179.287 72.5758C179.287 70.693 179.548 68.9484 180.052 67.342C180.574 65.7183 181.304 64.3192 182.261 63.1446C183.217 61.9528 184.382 61.02 185.704 60.3637C187.043 59.7073 188.556 59.3618 190.225 59.3618C191.651 59.3618 192.868 59.5864 193.877 60.0355C194.885 60.5018 195.79 61.0891 196.59 61.8492V48.4625H202.728V85.1506H198.989H199.024ZM190.851 80.6769C192.121 80.6769 193.216 80.4178 194.103 79.8823C195.007 79.3641 195.842 78.6214 196.642 77.6368V66.2884C195.946 65.442 195.181 64.8547 194.364 64.5092C193.547 64.1638 192.66 63.991 191.721 63.991C190.782 63.991 189.964 64.1638 189.217 64.5092C188.451 64.8547 187.825 65.3729 187.304 66.0811C186.782 66.7893 186.382 67.6702 186.104 68.7584C185.826 69.8293 185.686 71.1076 185.686 72.5758C185.686 74.044 185.808 75.3049 186.052 76.3413C186.295 77.3777 186.643 78.2068 187.078 78.8632C187.53 79.5196 188.069 79.986 188.712 80.2796C189.356 80.556 190.086 80.7114 190.886 80.7114L190.851 80.6769Z" fill="white"/>
<path d="M253.784 67.3075C253.784 69.933 253.349 72.3339 252.48 74.5276C251.61 76.7213 250.358 78.6041 248.776 80.1759C247.176 81.7651 245.263 82.9915 243.037 83.8551C240.794 84.7188 238.325 85.1679 235.612 85.1679H221.892V49.447H235.612C238.325 49.447 240.794 49.8788 243.037 50.7598C245.28 51.6407 247.193 52.8671 248.776 54.439C250.358 56.0108 251.593 57.8936 252.48 60.07C253.349 62.2637 253.784 64.6647 253.784 67.2902V67.3075ZM246.95 67.3075C246.95 65.3556 246.689 63.5937 246.15 62.0391C245.628 60.4846 244.863 59.1718 243.889 58.0836C242.916 57.0127 241.733 56.1835 240.324 55.6135C238.916 55.0435 237.351 54.7499 235.595 54.7499H228.604V79.8823H235.595C237.351 79.8823 238.933 79.5887 240.324 79.0186C241.716 78.4314 242.916 77.6022 243.889 76.5313C244.863 75.4604 245.628 74.1303 246.15 72.5758C246.689 71.0212 246.95 69.2593 246.95 67.3075Z" fill="white"/>
<path d="M267.486 92.1117C267.313 92.5435 267.069 92.8717 266.774 93.0963C266.495 93.3208 266.043 93.4417 265.452 93.4417H260.878L265.661 83.2851L255.349 59.8282H260.722C261.226 59.8282 261.591 59.9318 261.87 60.1737C262.148 60.4155 262.339 60.6746 262.461 60.9682L267.904 74.0958C268.078 74.5276 268.234 74.9767 268.373 75.4258C268.495 75.8922 268.617 76.3586 268.721 76.825C268.86 76.3413 268.999 75.8749 269.156 75.4258C269.312 74.994 269.469 74.5276 269.66 74.0613L274.79 60.9509C274.929 60.6228 275.138 60.3464 275.451 60.1218C275.747 59.9146 276.094 59.8109 276.477 59.8109H281.398L267.504 92.1117H267.486Z" fill="white"/>
<path d="M284.25 85.1506V59.8109H288.006C288.806 59.8109 289.328 60.1737 289.571 60.9164L290.006 62.9201C290.51 62.4019 291.049 61.9182 291.623 61.4864C292.197 61.0546 292.806 60.6918 293.432 60.3637C294.075 60.0527 294.753 59.8109 295.484 59.6555C296.214 59.4827 297.014 59.4136 297.883 59.4136C299.275 59.4136 300.509 59.6382 301.587 60.1218C302.665 60.5882 303.57 61.2446 304.283 62.091C304.996 62.9546 305.552 63.9565 305.917 65.131C306.3 66.3056 306.474 67.6011 306.474 69.0175V85.1334H300.335V69.0175C300.335 67.4629 299.97 66.2711 299.257 65.4247C298.544 64.5783 297.449 64.1465 296.023 64.1465C294.962 64.1465 293.971 64.3883 293.032 64.8547C292.11 65.3383 291.223 65.9947 290.388 66.8065V85.1334H284.25V85.1506Z" fill="white"/>
<path d="M331.532 85.1506H328.767C328.176 85.1506 327.741 85.0643 327.411 84.8915C327.08 84.7188 326.837 84.3733 326.663 83.8379L326.124 82.0415C325.481 82.6115 324.855 83.1297 324.229 83.5615C323.603 84.0106 322.959 84.3561 322.298 84.667C321.638 84.9606 320.925 85.1679 320.194 85.3234C319.446 85.4788 318.612 85.5479 317.708 85.5479C316.629 85.5479 315.638 85.4097 314.734 85.1161C313.812 84.8224 313.03 84.3906 312.369 83.8206C311.726 83.2333 311.204 82.5251 310.839 81.6614C310.474 80.7978 310.282 79.8132 310.282 78.6559C310.282 77.7059 310.543 76.7559 311.047 75.8231C311.569 74.8904 312.386 74.0613 313.569 73.3012C314.751 72.5585 316.316 71.9367 318.281 71.4357C320.229 70.9348 322.646 70.693 325.55 70.693V69.2075C325.55 67.4975 325.185 66.2365 324.472 65.4074C323.742 64.5783 322.698 64.181 321.325 64.181C320.333 64.181 319.516 64.3019 318.855 64.5265C318.194 64.751 317.603 65.0101 317.116 65.3038C316.629 65.5974 316.177 65.8565 315.76 66.0811C315.343 66.3056 314.873 66.4265 314.386 66.4265C313.969 66.4265 313.621 66.3056 313.325 66.0983C313.012 65.8911 312.786 65.6147 312.595 65.3038L311.482 63.3519C314.421 60.6918 317.951 59.3445 322.09 59.3445C323.585 59.3445 324.907 59.5864 326.089 60.07C327.272 60.5537 328.246 61.2273 329.046 62.091C329.863 62.9719 330.471 63.991 330.906 65.2001C331.324 66.392 331.55 67.722 331.55 69.1557V85.1506H331.532ZM319.586 81.3505C320.212 81.3505 320.803 81.2987 321.325 81.1778C321.846 81.0569 322.351 80.8842 322.837 80.6596C323.307 80.4351 323.776 80.1587 324.211 79.8305C324.646 79.5023 325.098 79.105 325.533 78.6559V74.424C323.742 74.424 322.264 74.5276 321.046 74.7522C319.846 74.9767 318.89 75.2531 318.16 75.6158C317.429 75.9613 316.908 76.3586 316.612 76.825C316.299 77.2913 316.16 77.7923 316.16 78.345C316.16 79.4332 316.473 80.1932 317.116 80.6596C317.742 81.126 318.577 81.3505 319.62 81.3505H319.586Z" fill="white"/>
<path d="M336.905 85.1506V59.8109H340.644C341.444 59.8109 341.966 60.1737 342.209 60.9164L342.609 62.7992C343.044 62.2983 343.513 61.8491 344.018 61.4346C344.504 61.02 345.026 60.6746 345.583 60.3637C346.139 60.07 346.73 59.8282 347.374 59.6555C348.017 59.4827 348.713 59.3964 349.478 59.3964C351.078 59.3964 352.417 59.8282 353.443 60.6918C354.486 61.5555 355.251 62.7128 355.755 64.1465C356.155 63.3001 356.66 62.5919 357.251 61.9873C357.842 61.3828 358.503 60.8991 359.216 60.5191C359.929 60.1391 360.677 59.8627 361.494 59.69C362.294 59.5 363.094 59.4136 363.911 59.4136C365.32 59.4136 366.572 59.6209 367.667 60.0527C368.763 60.4673 369.684 61.1064 370.432 61.9355C371.18 62.7474 371.754 63.7665 372.136 64.941C372.519 66.1329 372.71 67.4802 372.71 69.0175V85.1334H366.572V69.0175C366.572 67.3938 366.207 66.1847 365.494 65.3729C364.781 64.561 363.737 64.1465 362.364 64.1465C361.737 64.1465 361.146 64.2501 360.625 64.4747C360.085 64.6819 359.616 64.9929 359.199 65.3901C358.799 65.7874 358.468 66.3056 358.242 66.9102C357.999 67.532 357.894 68.2229 357.894 69.0175V85.1334H351.721V69.0175C351.721 67.3247 351.373 66.0811 350.695 65.3038C350 64.5265 348.991 64.1465 347.652 64.1465C346.765 64.1465 345.948 64.371 345.183 64.8029C344.418 65.2347 343.705 65.8392 343.026 66.582V85.1334H336.905V85.1506Z" fill="white"/>
<path d="M385.214 52.4353C385.214 52.9708 385.109 53.4717 384.901 53.9208C384.692 54.3872 384.396 54.7844 384.048 55.1299C383.683 55.4754 383.283 55.7517 382.796 55.959C382.31 56.1663 381.788 56.2699 381.249 56.2699C380.71 56.2699 380.205 56.1663 379.736 55.959C379.266 55.7517 378.849 55.4926 378.501 55.1299C378.153 54.7844 377.875 54.3872 377.667 53.9208C377.458 53.4717 377.354 52.9708 377.354 52.4353C377.354 51.8998 377.458 51.3816 377.667 50.9152C377.875 50.4489 378.153 50.0343 378.501 49.6889C378.849 49.3434 379.266 49.067 379.736 48.8597C380.205 48.6525 380.71 48.5488 381.249 48.5488C381.788 48.5488 382.31 48.6525 382.796 48.8597C383.283 49.067 383.683 49.3434 384.048 49.6889C384.414 50.0343 384.692 50.4489 384.901 50.9152C385.109 51.3989 385.214 51.8998 385.214 52.4353ZM384.309 59.8282V85.1679H378.171V59.8282H384.309Z" fill="white"/>
<path d="M408.202 65.1656C408.028 65.4074 407.837 65.5801 407.663 65.7183C407.489 65.8565 407.228 65.9083 406.898 65.9083C406.568 65.9083 406.272 65.822 405.976 65.632C405.681 65.442 405.333 65.2347 404.898 64.9929C404.481 64.751 403.994 64.5438 403.438 64.3538C402.864 64.1638 402.151 64.0601 401.299 64.0601C400.22 64.0601 399.281 64.2674 398.464 64.6474C397.664 65.0274 396.969 65.5974 396.447 66.3056C395.908 67.0311 395.508 67.912 395.247 68.9311C394.969 69.9503 394.847 71.1248 394.847 72.4203C394.847 73.7158 394.986 74.9767 395.282 76.0131C395.578 77.0668 395.977 77.965 396.534 78.6732C397.09 79.3987 397.751 79.9341 398.534 80.2969C399.316 80.6596 400.186 80.8496 401.177 80.8496C402.168 80.8496 402.933 80.7287 403.542 80.4869C404.151 80.2451 404.655 79.986 405.072 79.6923C405.49 79.3987 405.855 79.1396 406.15 78.915C406.463 78.6732 406.794 78.5523 407.194 78.5523C407.681 78.5523 408.063 78.7423 408.307 79.1223L410.08 81.3505C409.402 82.1451 408.654 82.8015 407.872 83.3369C407.072 83.8724 406.237 84.3042 405.403 84.6152C404.55 84.9433 403.664 85.1852 402.759 85.3061C401.855 85.4443 400.951 85.4961 400.047 85.4961C398.482 85.4961 396.986 85.2024 395.595 84.6152C394.204 84.0451 392.986 83.1815 391.943 82.076C390.917 80.9532 390.082 79.5887 389.491 77.965C388.883 76.3413 388.587 74.4931 388.587 72.4203C388.587 70.5548 388.848 68.8448 389.387 67.2556C389.926 65.6665 390.708 64.2847 391.752 63.1274C392.813 61.9701 394.099 61.0546 395.63 60.3982C397.177 59.7418 398.951 59.4136 400.951 59.4136C402.846 59.4136 404.516 59.7073 405.959 60.3291C407.385 60.9337 408.672 61.8146 409.82 62.9546L408.202 65.1656Z" fill="white"/>
<path d="M429.314 64.751C429.14 65.0101 428.966 65.2001 428.792 65.3211C428.601 65.4247 428.375 65.4765 428.096 65.4765C427.801 65.4765 427.47 65.3901 427.14 65.2347C426.792 65.062 426.41 64.8719 425.958 64.6819C425.505 64.4747 425.001 64.2847 424.445 64.1292C423.871 63.9737 423.193 63.8874 422.41 63.8874C421.193 63.8874 420.236 64.1465 419.558 64.6474C418.863 65.1656 418.515 65.822 418.515 66.6511C418.515 67.1866 418.689 67.6529 419.054 68.0157C419.402 68.3784 419.889 68.7066 420.48 69.0002C421.071 69.2766 421.732 69.5357 422.48 69.743C423.21 69.9675 423.975 70.2094 424.775 70.4857C425.54 70.7448 426.305 71.0385 427.07 71.3839C427.801 71.7121 428.462 72.1439 429.07 72.6621C429.661 73.1803 430.131 73.8022 430.479 74.5276C430.844 75.2531 431.018 76.1168 431.018 77.1532C431.018 78.3623 430.774 79.485 430.34 80.5214C429.905 81.5405 429.244 82.4387 428.375 83.1815C427.505 83.9242 426.444 84.5115 425.175 84.9261C423.906 85.3406 422.462 85.5479 420.81 85.5479C419.941 85.5479 419.071 85.4788 418.237 85.3061C417.402 85.1506 416.602 84.9433 415.819 84.667C415.054 84.3733 414.324 84.0451 413.681 83.6824C413.037 83.3024 412.463 82.8878 411.959 82.4387L413.368 80.1241C413.541 79.8478 413.75 79.6405 414.011 79.485C414.254 79.3296 414.567 79.2605 414.95 79.2605C415.333 79.2605 415.68 79.3814 416.028 79.5887C416.376 79.8132 416.776 80.0378 417.211 80.2796C417.663 80.5214 418.184 80.7632 418.793 80.9705C419.384 81.1778 420.167 81.2987 421.088 81.2987C421.819 81.2987 422.427 81.2123 422.967 81.0396C423.488 80.8669 423.923 80.6423 424.271 80.3487C424.619 80.0723 424.862 79.7441 425.018 79.3814C425.175 79.0187 425.245 78.6214 425.245 78.2414C425.245 77.6541 425.071 77.1532 424.705 76.7904C424.358 76.4104 423.871 76.0822 423.297 75.7886C422.706 75.5122 422.028 75.2704 421.28 75.0458C420.515 74.8213 419.749 74.5795 418.967 74.3204C418.184 74.0613 417.402 73.7503 416.672 73.3876C415.906 73.0249 415.246 72.5758 414.654 72.0403C414.063 71.5048 413.611 70.8312 413.246 70.0366C412.881 69.2421 412.707 68.292 412.707 67.1866C412.707 66.1502 412.915 65.1656 413.333 64.2156C413.75 63.2828 414.359 62.4537 415.159 61.7628C415.959 61.0719 416.967 60.5018 418.167 60.0873C419.367 59.6555 420.758 59.4482 422.341 59.4482C424.097 59.4482 425.679 59.7246 427.14 60.3118C428.566 60.8819 429.783 61.6419 430.74 62.5919L429.348 64.7856L429.314 64.751Z" fill="white"/>
<path d="M87.7832 60.6746C83.9749 42.745 64.7421 25.8001 50.274 22.57C48.9698 23.3128 47.8917 24.4182 47.1787 25.2992C54.7258 26.8537 61.5598 32.2602 69.2982 40.4823C75.9409 47.5643 80.3927 58.8609 81.4882 70.7794C81.9229 75.4949 81.836 80.2969 81.1578 84.9779C88.0266 77.5159 89.5569 68.983 87.7832 60.6746Z" fill="white"/>
<path d="M79.0369 73.0421C67.4729 82.8015 47.1794 88.1561 27.7031 85.2888C28.1379 88.8125 29.3203 93.0444 32.4678 96.9482C47.7184 97.4491 68.7076 94.0636 78.2544 87.4652C79.1413 81.7478 79.2108 76.7386 79.0369 73.0421Z" fill="white"/>
<path d="M49.2307 37.9604C56.5865 39.9295 62.4989 49.1016 53.8911 61.3828C56.0126 64.4574 60.1165 69.5184 64.9682 71.5739C69.3156 63.1792 69.7677 50.6734 65.1943 43.4533C59.8557 35.594 50.448 34.8858 43.04 38.0295C43.04 38.064 43.04 38.0813 43.04 38.1159C45.0224 37.4595 47.1613 37.4249 49.2133 37.9777L49.2307 37.9604Z" fill="white"/>
<path d="M43.1445 38.8758C43.301 40.2404 43.5445 41.8814 43.8575 43.4532C45.4226 41.7259 46.9702 40.1195 48.4831 38.6858C46.4659 38.2367 44.5705 38.4786 43.1445 38.8758Z" fill="white"/>
<path d="M62.9161 73.7158C59.1774 72.1439 55.3865 68.482 52.0651 63.7837C48.1177 58.17 44.8311 51.0707 43.1617 44.2305C42.7269 42.5032 42.4487 40.8277 42.24 39.1522C42.2052 38.9104 42.1705 38.6513 42.1357 38.4268C41.5792 33.0894 42.2922 28.2701 44.7441 24.9192C45.544 23.8309 46.5178 22.8809 47.7177 22.1382C43.3008 21.6373 39.4751 22.6218 36.9362 25.5237C35.0234 27.7174 33.8235 30.9993 33.6496 35.5594C33.3366 37.8913 33.1105 41.225 33.0584 45.0251C33.0236 48.7388 33.1801 52.9017 33.6496 57.0818C35.4233 72.8694 41.614 88.5362 58.6383 78.7596C60.5686 77.6541 62.2379 75.9613 63.6291 73.9058L62.9161 73.7331V73.7158Z" fill="white"/>
<path d="M25.1291 84.8915C24.5031 76.8768 27.4072 68.1711 31.8589 60.1218C31.4067 55.7863 31.2676 50.518 31.2329 46.7524C22.7294 55.3544 13.3217 69.933 12.1218 81.126C11.4436 87.3789 13.3391 92.5608 19.408 95.0309C21.9469 95.9291 25.39 96.5163 29.3548 96.7927C26.7811 93.1308 25.4595 89.1062 25.1291 84.8915Z" fill="white"/>
</g>
<defs>
<clipPath id="clip0_2597_1686">
<rect width="419" height="75" fill="white" transform="translate(12 22)"/>
</clipPath>
</defs>
</svg>
