<svg width="120" height="120" viewBox="0 0 120 120" fill="none" xmlns="http://www.w3.org/2000/svg">
<g clip-path="url(#clip0_2598_2585)">
<path d="M72.6616 32.7474H75.9096C76.0624 32.7238 76.2016 32.6461 76.3021 32.5284C76.4027 32.4107 76.458 32.2606 76.458 32.1054C76.458 31.9502 76.4027 31.8002 76.3021 31.6824C76.2016 31.5647 76.0624 31.487 75.9096 31.4634H72.6616C72.509 31.487 72.3697 31.5647 72.2691 31.6824C72.1685 31.8002 72.1133 31.9502 72.1133 32.1054C72.1133 32.2606 72.1685 32.4107 72.2691 32.5284C72.3697 32.6461 72.509 32.7238 72.6616 32.7474Z" fill="white"/>
<path d="M72.6618 34.9228H75.9098C76.0775 34.9228 76.2382 34.8561 76.3565 34.737C76.475 34.6179 76.5415 34.4567 76.5415 34.2884C76.5415 34.1201 76.475 33.9586 76.3565 33.8397C76.2382 33.7207 76.0775 33.6539 75.9098 33.6539H72.6618C72.4943 33.6539 72.3337 33.7207 72.2151 33.8397C72.0968 33.9586 72.0303 34.1201 72.0303 34.2884C72.0303 34.4567 72.0968 34.6179 72.2151 34.737C72.3337 34.8561 72.4943 34.9228 72.6618 34.9228Z" fill="white"/>
<path d="M72.6618 37.1133H75.9098C76.0775 37.1133 76.2382 37.0466 76.3565 36.9275C76.475 36.8084 76.5415 36.6472 76.5415 36.4789C76.5415 36.3106 76.475 36.1491 76.3565 36.0302C76.2382 35.9112 76.0775 35.8444 75.9098 35.8444H72.6618C72.4943 35.8444 72.3337 35.9112 72.2151 36.0302C72.0968 36.1491 72.0303 36.3106 72.0303 36.4789C72.0303 36.6472 72.0968 36.8084 72.2151 36.9275C72.3337 37.0466 72.4943 37.1133 72.6618 37.1133Z" fill="white"/>
<path d="M67.3081 44.7119H81.7892V46.2227C81.7906 46.3483 81.8284 46.4709 81.8978 46.5754C81.9672 46.68 82.0653 46.7621 82.1802 46.8119H82.4207C82.5041 46.813 82.5869 46.7976 82.6644 46.7664C82.7418 46.7354 82.8123 46.6892 82.8718 46.6306L83.5035 45.996L84.1351 46.6306C84.2235 46.7211 84.3368 46.783 84.4605 46.8083C84.5843 46.8335 84.7126 46.8211 84.8292 46.7722C84.9457 46.7235 85.0451 46.6407 85.1143 46.5346C85.1835 46.4286 85.2195 46.3041 85.2178 46.1773V44.6667H88.902C88.9849 44.6667 89.067 44.6502 89.1438 44.6183C89.2203 44.5866 89.2899 44.5397 89.3485 44.4809C89.4072 44.4219 89.4538 44.3519 89.4855 44.275C89.5173 44.198 89.5336 44.1156 89.5336 44.0322V30.9498C89.5336 30.7815 89.4671 30.6201 89.3485 30.5011C89.2302 30.3821 89.0695 30.3153 88.902 30.3153H87.3982V27.6716C87.3982 27.5033 87.3316 27.3419 87.2133 27.2229C87.0948 27.104 86.9341 27.0371 86.7666 27.0371H80.2704C79.8533 27.037 79.4416 27.1321 79.0665 27.3153C78.6914 27.4985 78.3625 27.765 78.105 28.0946C77.8504 27.7653 77.5244 27.4988 77.1517 27.3156C76.779 27.1323 76.3695 27.037 75.9546 27.0371H69.4734C69.3891 27.0351 69.3054 27.05 69.227 27.081C69.1487 27.112 69.0773 27.1584 69.0171 27.2175C68.9568 27.2766 68.9089 27.3473 68.8763 27.4253C68.8435 27.5032 68.8268 27.587 68.8268 27.6716V30.3153H67.3229C67.1555 30.3153 66.9948 30.3821 66.8765 30.5011C66.7579 30.6201 66.6914 30.7815 66.6914 30.9498V44.0775C66.6914 44.2431 66.756 44.4024 66.8711 44.5209C66.9864 44.6394 67.1431 44.708 67.3081 44.7119ZM78.8868 43.4431C79.0043 43.1728 79.1979 42.943 79.4438 42.7819C79.6896 42.6208 79.9769 42.5355 80.2704 42.5366H81.7741V43.4431H78.8868ZM83.9545 44.7271C83.895 44.6685 83.8245 44.6223 83.747 44.5911C83.6696 44.5601 83.5869 44.5445 83.5035 44.5458C83.4221 44.5431 83.3411 44.5579 83.266 44.5891C83.1906 44.6203 83.1231 44.6674 83.0675 44.7271V42.5366H83.9545V44.7271ZM88.2703 31.5842V43.4431H85.2629V42.5366H86.7666C86.9341 42.5366 87.0948 42.4698 87.2133 42.3508C87.3316 42.2317 87.3982 42.0705 87.3982 41.9022V31.5842H88.2703ZM70.1049 28.3061H75.9546C76.3534 28.3061 76.7358 28.4652 77.0179 28.7485C77.2999 29.0318 77.4583 29.4161 77.4583 29.8167C77.4583 29.985 77.525 30.1464 77.6433 30.2654C77.7618 30.3844 77.9225 30.4512 78.09 30.4512C78.2575 30.4512 78.4181 30.3844 78.5365 30.2654C78.655 30.1464 78.7215 29.985 78.7215 29.8167C78.7215 29.4161 78.88 29.0318 79.1619 28.7485C79.444 28.4652 79.8264 28.3061 80.2252 28.3061H86.1952V41.1921H80.2704C79.8539 41.1952 79.4432 41.2919 79.0687 41.4748C78.6939 41.6577 78.3647 41.9225 78.105 42.2496C77.8483 41.9227 77.5218 41.6581 77.1495 41.4752C76.7773 41.2921 76.369 41.1954 75.9546 41.1921H70.1049V28.3061ZM67.9396 31.5842H68.8268V41.9022C68.8268 41.9868 68.8435 42.0705 68.8763 42.1484C68.9089 42.2265 68.9568 42.297 69.0171 42.3562C69.0773 42.4154 69.1487 42.4617 69.227 42.4928C69.3054 42.5238 69.3891 42.5386 69.4734 42.5366H75.9546C76.2481 42.5355 76.5355 42.6208 76.7814 42.7819C77.027 42.943 77.2207 43.1728 77.3381 43.4431H67.9396V31.5842Z" fill="white"/>
<path d="M52.632 75.8168C52.4514 75.3787 52.1808 75.2578 51.6996 75.4844L49.429 76.8591C48.7372 76.8591 47.9253 76.8591 47.8349 76.8591L47.0981 76.557C46.4678 76.1823 45.7748 75.9263 45.0531 75.8017C44.4843 75.865 43.9383 76.0616 43.459 76.3757C41.8536 76.7688 40.1848 76.8254 38.5568 76.5418C38.3612 76.3456 35.9253 74.9255 35.9253 74.9255C35.8435 74.8842 35.7535 74.8629 35.662 74.8629C35.5706 74.8629 35.4806 74.8842 35.3988 74.9255C35.3088 74.9533 35.2265 75.002 35.1585 75.0675C35.0908 75.1331 35.0391 75.2138 35.0079 75.3031L32.1508 82.9773C32.1176 83.0536 32.1006 83.1359 32.1006 83.219C32.1006 83.3022 32.1176 83.3845 32.1508 83.4608C32.2231 83.6148 32.3527 83.7342 32.5116 83.7931C32.5116 83.7931 34.9778 84.7448 35.2486 84.7448C35.3967 84.7405 35.5392 84.6874 35.6545 84.5938L36.1358 84.8808C36.089 85.017 36.0635 85.1597 36.0605 85.3038C36.0594 85.5062 36.0987 85.7068 36.1761 85.8937C36.2536 86.0804 36.3678 86.2498 36.5116 86.3914C36.7745 86.662 37.1284 86.8236 37.5041 86.8447C37.5532 87.0372 37.6397 87.2183 37.7585 87.3773C37.8772 87.5362 38.0263 87.67 38.1966 87.7712C38.3671 87.8723 38.5558 87.9385 38.7517 87.9661C38.9477 87.9938 39.1471 87.9823 39.3388 87.9323C39.53 88.2366 39.8111 88.473 40.1428 88.6084C40.4746 88.7439 40.8402 88.7717 41.1884 88.6876C41.4057 89.012 41.7301 89.2486 42.1041 89.3563C42.4782 89.4642 42.878 89.4361 43.2334 89.2768L43.5793 89.6092C43.8809 89.9109 44.289 90.0803 44.7147 90.0803C45.1402 90.0803 45.5485 89.9109 45.8499 89.6092C45.9799 89.4862 46.0825 89.3369 46.1508 89.1711C46.2964 89.2192 46.4485 89.2447 46.602 89.2467C46.8112 89.2468 47.0187 89.2055 47.2121 89.1253C47.4056 89.0448 47.5815 88.927 47.7296 88.7784C47.8476 88.6564 47.9488 88.5193 48.0305 88.3705C48.219 88.4372 48.4171 88.473 48.6169 88.4762C48.9371 88.4757 49.2502 88.3811 49.5174 88.2038C49.7847 88.0267 49.9943 87.7747 50.1207 87.4792H50.4064C50.7252 87.4918 51.0404 87.4081 51.3114 87.2387C51.5823 87.0695 51.7964 86.8224 51.9259 86.5294C52.0555 86.2366 52.0946 85.9114 52.0381 85.5959C51.9818 85.2804 51.8324 84.9892 51.6094 84.76L51.7749 84.6694C51.8371 84.7643 51.919 84.8444 52.015 84.9044C52.1111 84.9643 52.219 85.0028 52.3313 85.0168C53.2422 84.7675 54.1362 84.4596 55.0078 84.0952C55.0885 84.0703 55.1631 84.0286 55.2266 83.9729C55.2903 83.9172 55.3414 83.8484 55.3769 83.7716C55.4124 83.6946 55.4314 83.611 55.4324 83.5262C55.4337 83.4415 55.417 83.3574 55.3839 83.2795L52.632 75.8168ZM36.0004 76.421L37.429 77.3879C36.9741 79.4748 36.1761 81.471 35.068 83.2946L33.5643 82.781L36.0004 76.421ZM42.4215 88.0231C42.3751 87.9765 42.3421 87.9183 42.3263 87.8544C42.3103 87.7904 42.3121 87.7234 42.3311 87.6605C42.3769 87.5223 42.3751 87.3727 42.3259 87.2358C42.2768 87.0987 42.1834 86.9824 42.0606 86.9052C41.9392 86.829 41.7959 86.7966 41.6537 86.8132C41.5117 86.8296 41.3795 86.894 41.2786 86.9957L40.9478 87.313C40.8999 87.361 40.835 87.3879 40.7674 87.3879C40.6996 87.3879 40.6347 87.361 40.5868 87.313C40.5456 87.2706 40.5224 87.2136 40.5224 87.1543C40.5224 87.0951 40.5456 87.0381 40.5868 86.9957C40.6781 86.8644 40.7177 86.7039 40.6983 86.5449C40.6788 86.386 40.6017 86.2399 40.4816 86.1347C40.3609 86.0285 40.206 85.9698 40.0455 85.9698C39.885 85.9698 39.7301 86.0285 39.6094 86.1347L39.2484 86.4973C39.2006 86.5453 39.1356 86.5722 39.068 86.5722C39.0004 86.5722 38.9355 86.5453 38.8877 86.4973C38.8484 86.4508 38.8269 86.392 38.8269 86.331C38.8269 86.2702 38.8484 86.2114 38.8877 86.1648C38.985 86.0386 39.0286 85.8786 39.0089 85.72C38.9892 85.5616 38.9076 85.4173 38.7824 85.319C38.6623 85.2052 38.5036 85.142 38.3388 85.142C38.1738 85.142 38.0151 85.2052 37.8952 85.319C37.8417 85.3617 37.7754 85.3852 37.7071 85.3852C37.6388 85.3852 37.5726 85.3617 37.5192 85.319C37.4788 85.2643 37.4571 85.1981 37.4571 85.1301C37.4571 85.0621 37.4788 84.9959 37.5192 84.9412L38.3763 84.0802C38.3989 84.0544 38.4267 84.0339 38.4579 84.0198C38.4889 84.0055 38.5226 83.9983 38.5568 83.9983C38.5909 83.9983 38.6246 84.0055 38.6558 84.0198C38.6868 84.0339 38.7146 84.0544 38.7372 84.0802C38.8394 84.1796 38.9716 84.2424 39.1129 84.2588C39.2544 84.2752 39.3971 84.2442 39.5192 84.1708C39.5493 84.2579 39.6011 84.3358 39.6696 84.3974C39.7283 84.4576 39.7986 84.5056 39.876 84.5382C39.9535 84.5711 40.0367 84.5879 40.1206 84.5879C40.2047 84.5879 40.2879 84.5711 40.3654 84.5382C40.4428 84.5056 40.5129 84.4576 40.5717 84.3974C40.5943 84.3717 40.6221 84.351 40.6533 84.3369C40.6844 84.3229 40.7181 84.3156 40.7523 84.3156C40.7864 84.3156 40.8201 84.3229 40.8513 84.3369C40.8823 84.351 40.9101 84.3717 40.9327 84.3974C40.9931 84.4564 41.0647 84.5025 41.1432 84.5334C41.0489 84.6569 41.0032 84.811 41.0146 84.9663C41.0261 85.1216 41.0941 85.2674 41.2056 85.3756C41.317 85.4839 41.4642 85.547 41.6191 85.5533C41.774 85.5596 41.9257 85.5084 42.0455 85.4095C42.0988 85.3666 42.1651 85.3433 42.2334 85.3433C42.3017 85.3433 42.3681 85.3666 42.4215 85.4095C42.452 85.451 42.4685 85.5014 42.4685 85.5531C42.4685 85.6047 42.452 85.6551 42.4215 85.6965C42.3496 85.8306 42.3267 85.9855 42.357 86.1345C42.3873 86.2837 42.4685 86.4174 42.5868 86.5123C42.6946 86.5956 42.8268 86.6407 42.9629 86.6407C43.0988 86.6407 43.2309 86.5956 43.3387 86.5123C43.4095 86.4713 43.49 86.4497 43.5718 86.4497C43.6536 86.4497 43.7341 86.4713 43.8049 86.5123C43.8567 86.5705 43.8852 86.6458 43.8852 86.7239C43.8852 86.8018 43.8567 86.8772 43.8049 86.9353L42.8725 87.8569C42.8725 87.8569 42.5868 88.1892 42.4215 88.0231ZM45.0229 88.6122C44.9934 88.6447 44.9573 88.6707 44.9172 88.6884C44.8772 88.7062 44.8338 88.7154 44.7898 88.7154C44.7459 88.7154 44.7027 88.7062 44.6625 88.6884C44.6224 88.6707 44.5863 88.6447 44.5567 88.6122L44.2711 88.3402L44.7373 87.8569L45.0531 88.2044C45.0832 88.2347 45.1067 88.2713 45.1217 88.3115C45.1366 88.3517 45.1429 88.3949 45.1402 88.4378C45.1373 88.4807 45.1253 88.5224 45.1051 88.5603C45.085 88.5981 45.0568 88.6313 45.0229 88.6575V88.6122ZM50.7071 86.044C50.6775 86.0766 50.6416 86.1026 50.6015 86.1203C50.5613 86.1381 50.5179 86.1472 50.474 86.1472C50.4302 86.1472 50.3868 86.1381 50.3467 86.1203C50.3065 86.1026 50.2706 86.0766 50.2411 86.044L47.3988 83.2342C47.2792 83.114 47.1169 83.0464 46.9477 83.0464C46.7786 83.0464 46.6163 83.114 46.4967 83.2342C46.3769 83.3543 46.3097 83.5174 46.3097 83.6873C46.3097 83.8574 46.3769 84.0203 46.4967 84.1407L48.9177 86.5879C48.9792 86.6501 49.0137 86.7343 49.0137 86.822C49.0137 86.9097 48.9792 86.9939 48.9177 87.0562C48.8516 87.1157 48.7659 87.1485 48.6771 87.1485C48.5884 87.1485 48.5026 87.1157 48.4365 87.0562L45.5944 84.2011C45.4736 84.0829 45.3118 84.0167 45.1433 84.0167C44.9747 84.0167 44.8128 84.0829 44.6921 84.2011C44.632 84.2601 44.5844 84.3306 44.5519 84.4084C44.5193 84.4863 44.5026 84.5698 44.5026 84.6542C44.5026 84.7387 44.5193 84.8222 44.5519 84.8999C44.5844 84.9779 44.632 85.0484 44.6921 85.1074L46.8725 87.3583C46.934 87.4206 46.9686 87.5048 46.9686 87.5925C46.9686 87.6801 46.934 87.7644 46.8725 87.8266C46.8089 87.8851 46.7257 87.9174 46.6394 87.9174C46.5532 87.9174 46.4702 87.8851 46.4063 87.8266L45.083 86.467C45.0066 86.1418 44.825 85.851 44.5664 85.6404C44.3079 85.4299 43.9873 85.3116 43.6545 85.3038C43.5745 85.056 43.4411 84.829 43.2636 84.6391C43.093 84.467 42.8838 84.3386 42.6534 84.265C42.4231 84.1914 42.1784 84.1746 41.9402 84.2161C41.9643 84.1118 41.9618 84.0032 41.9329 83.9002C41.904 83.7972 41.8497 83.7032 41.7747 83.6269C41.5156 83.357 41.1658 83.1938 40.7934 83.1685C40.4209 83.1435 40.0525 83.2584 39.7598 83.4911C39.7295 83.4039 39.6779 83.3258 39.6094 83.2643C39.4692 83.1182 39.301 83.0018 39.1148 82.9225C38.9289 82.8431 38.7288 82.8022 38.5267 82.8022C38.3246 82.8022 38.1245 82.8431 37.9384 82.9225C37.7524 83.0018 37.5843 83.1182 37.444 83.2643L36.9628 83.7478L36.4365 83.4456C37.4379 81.6798 38.1776 79.7763 38.632 77.7957C39.1582 77.8713 41.0831 77.9469 41.2183 77.9469C41.0717 78.3481 41.0003 78.7733 41.0078 79.2006C40.639 79.7066 40.3119 80.2422 40.0304 80.802C39.9779 81.0137 39.9899 81.2363 40.065 81.4411C40.1401 81.6458 40.2748 81.8232 40.4514 81.9502C40.7849 82.2146 41.1999 82.3535 41.6245 82.3429C42.1061 82.3288 42.5764 82.1937 42.9928 81.9502C43.3462 81.7759 43.6573 81.5261 43.904 81.2181C44.151 80.9102 44.3276 80.5516 44.4214 80.1675H45.2786L50.7071 85.621C50.7652 85.685 50.7975 85.7685 50.7975 85.8551C50.7975 85.9419 50.7652 86.0254 50.7071 86.0894V86.044ZM50.7071 83.7781L45.9552 79.0044C45.8922 78.9419 45.8168 78.8934 45.7339 78.8622C45.6509 78.831 45.5625 78.8177 45.4741 78.8231C45.038 78.8231 43.7898 78.9136 43.7898 78.9136C43.6172 78.9362 43.4592 79.0235 43.3478 79.1579C43.2363 79.2923 43.1793 79.464 43.1884 79.6388C43.1847 79.8978 43.104 80.15 42.9566 80.3627C42.8092 80.5752 42.6019 80.7388 42.3613 80.8323C42.2114 80.9414 42.0378 81.0134 41.8549 81.0422C41.6718 81.0711 41.4846 81.0561 41.3087 80.9984C41.474 80.7264 42.0756 79.8805 42.1206 79.8201C42.2542 79.4526 42.3155 79.0628 42.3012 78.6719C44.3312 77.1613 44.9478 77.0404 45.083 77.0404C45.6041 77.1948 46.108 77.4023 46.5869 77.6597C46.9027 77.8448 47.2414 77.9869 47.5944 78.0827C48.0953 78.1085 48.5971 78.1085 49.0981 78.0827C49.5149 79.9879 50.1984 81.8241 51.1283 83.5363L50.7071 83.7781ZM52.6019 83.5665C51.5233 81.7728 50.746 79.8129 50.3011 77.7656L51.6845 76.9347L53.9854 83.0832C53.5943 83.2795 53.1131 83.4911 52.6169 83.6119L52.6019 83.5665Z" fill="white"/>
<path d="M31.8046 30.98C32.301 30.98 33.5188 30.3153 34.4964 30.1189V44.0171C34.4975 44.1202 34.5226 44.2218 34.5696 44.3136C34.6166 44.4053 34.6842 44.4848 34.767 44.5458C34.859 44.5974 34.9625 44.6244 35.0677 44.6244C35.1731 44.6244 35.2766 44.5974 35.3686 44.5458L40.5715 42.461L45.7896 44.5458C45.8801 44.5934 45.9807 44.6183 46.0827 44.6183C46.185 44.6183 46.2855 44.5934 46.3761 44.5458C46.4636 44.4882 46.5353 44.4099 46.5854 44.3176C46.6352 44.2254 46.6614 44.122 46.6617 44.0171V30.1189C49.0647 30.4488 51.3292 31.4424 53.2032 32.9891C53.3367 33.1057 53.5074 33.1699 53.6842 33.1704C53.8648 33.1529 54.0318 33.0663 54.1505 32.9287C54.9247 31.8554 55.35 30.5681 55.3685 29.2427C55.3479 27.9223 54.9226 26.6404 54.1505 25.5717C54.0959 25.4987 54.0258 25.439 53.945 25.3972C53.8643 25.3553 53.7752 25.3323 53.6842 25.33C53.5064 25.3245 53.3335 25.3897 53.2032 25.5113C50.5485 27.6341 47.2253 28.7326 43.8347 28.6082H36.2106C34.7442 28.3533 33.2933 28.0154 31.8647 27.596C31.6368 27.5877 31.4094 27.6264 31.1968 27.7098C30.9843 27.7932 30.791 27.9195 30.6289 28.0809C30.4668 28.2423 30.3395 28.4354 30.2545 28.6482C30.1697 28.861 30.1291 29.089 30.1354 29.3182C30.1291 29.5394 30.1681 29.7596 30.25 29.9651C30.3318 30.1706 30.4548 30.357 30.6113 30.5128C30.7677 30.6686 30.9543 30.7905 31.1596 30.8708C31.365 30.9512 31.5844 30.9883 31.8046 30.98ZM35.7595 38.5333L45.3836 34.4997V35.3761L35.7595 39.4095V38.5333ZM45.3836 33.0949L35.7595 37.1284V31.3878C37.0844 32.5739 38.797 33.2292 40.5715 33.2292C42.3461 33.2292 44.0587 32.5739 45.3836 31.3878V33.0949ZM40.8723 41.2978C40.7176 41.2372 40.5458 41.2372 40.3911 41.2978L35.8798 43.1257V40.7691L45.5039 36.7357V43.0653L40.8723 41.2978ZM53.5641 26.9918C53.9459 27.7027 54.1521 28.4954 54.1655 29.3031C54.1544 30.1111 53.948 30.9044 53.5641 31.6144C52.0751 30.5139 50.3909 29.7089 48.6017 29.2427C50.3654 28.7877 52.0285 28.0037 53.5039 26.9314L53.5641 26.9918ZM45.0227 30.0131C44.4684 30.6361 43.7894 31.1345 43.0302 31.4757C42.2708 31.817 41.4485 31.9934 40.6166 31.9934C39.7848 31.9934 38.9625 31.817 38.2033 31.4757C37.4439 31.1345 36.7651 30.6361 36.2106 30.0131H45.0227ZM31.7446 28.9103C32.063 29.0937 32.401 29.2406 32.7519 29.3484C32.3929 29.447 32.0488 29.5944 31.7295 29.7865C31.4889 29.7865 31.4738 29.5448 31.4738 29.3333C31.434 29.2372 31.4336 29.129 31.4733 29.0327C31.5127 28.9364 31.5886 28.8598 31.6843 28.8197L31.7446 28.9103Z" fill="white"/>
<path d="M26.4815 50.1203V23.8345C36.6444 20.8688 47.126 19.1443 57.6996 18.6982V50.1203H58.9626V18.668H61.083V50.1203H62.3312V18.6982C72.8977 19.117 83.3725 20.8421 93.5192 23.8345V50.1203H94.7672V23.3511C94.7664 23.2151 94.7222 23.0829 94.6409 22.9741C94.5597 22.8654 94.4458 22.7857 94.3162 22.7468C80.8575 19.0456 70.256 17.399 60.1206 17.399C49.9853 17.399 38.9627 19.1061 25.6996 22.7468C25.5683 22.7851 25.4524 22.8642 25.3686 22.9727C25.2849 23.0813 25.2375 23.2138 25.2334 23.3511V50.1203H26.4815Z" fill="white"/>
<path d="M93.5191 69.8949C93.3988 87.2526 79.9853 100.229 62.3312 101.302V69.8949H61.083V101.302H58.9626V69.8949H57.6996V101.241C40.1207 100.108 26.647 87.1619 26.4965 69.8949H25.2334C25.3988 88.6878 40.662 102.646 60.1206 102.646C79.5792 102.646 94.7071 88.6878 94.7071 69.8949H93.5191Z" fill="white"/>
<path d="M106.18 62.8854L112 52.3106H102.271V49.4857H98.2256V19.9521C98.2238 19.8141 98.1773 19.6805 98.0932 19.5715C98.0091 19.4624 97.8919 19.3839 97.7594 19.3478C85.5065 15.8871 72.8479 14.0886 60.1203 14C47.338 14.0843 34.6242 15.8828 22.3158 19.3478C22.1833 19.3839 22.0661 19.4624 21.9819 19.5715C21.8978 19.6805 21.8514 19.8141 21.8496 19.9521V49.4857H17.7293V52.371H8L13.8196 62.9458L8 73.3846H22.0451C23.985 91.9507 40.0001 106 60.1203 106C80.2406 106 96.0451 91.9507 97.9548 73.3846H112L106.18 62.8854ZM23.1128 20.4355C35.1691 17.0871 47.612 15.35 60.1203 15.269C72.5535 15.3618 84.9206 17.0989 96.9023 20.4355V49.4857H23.1128V20.4355ZM18.9775 50.7396H101.023V69.2301H18.9775V50.7396ZM10.1353 72.1307L15.2481 62.8854L10.1353 53.6401H17.7293V70.484H21.8797C21.8797 71.0279 21.8797 71.587 21.8797 72.1307H10.1353ZM60.1203 104.731C39.6693 104.731 23.609 89.7602 23.1278 70.484H96.8121C96.4061 89.7602 80.436 104.731 60.1203 104.731ZM98.1203 70.484H102.271V53.6401H109.88L104.752 62.8854L109.88 72.1307H98.0452C98.0902 71.587 98.1052 71.0279 98.1203 70.484Z" fill="white"/>
<path d="M98.1503 47.2952H96.9023V48.2016H98.1503V47.2952Z" fill="white"/>
<path d="M71.007 83.6572C71.7628 83.6572 72.3755 83.0417 72.3755 82.2824C72.3755 81.5231 71.7628 80.9076 71.007 80.9076C70.2512 80.9076 69.6387 81.5231 69.6387 82.2824C69.6387 83.0417 70.2512 83.6572 71.007 83.6572Z" fill="white"/>
<path d="M77.5944 77.3123C78.317 77.3123 78.9028 76.7238 78.9028 75.9981C78.9028 75.2722 78.317 74.6838 77.5944 74.6838C76.8719 74.6838 76.2861 75.2722 76.2861 75.9981C76.2861 76.7238 76.8719 77.3123 77.5944 77.3123Z" fill="white"/>
<path d="M81.2783 82.2824C81.6104 82.2824 81.8797 82.0118 81.8797 81.678C81.8797 81.3443 81.6104 81.0739 81.2783 81.0739C80.9461 81.0739 80.6768 81.3443 80.6768 81.678C80.6768 82.0118 80.9461 82.2824 81.2783 82.2824Z" fill="white"/>
<path d="M68.2704 87.1165C68.5611 87.1165 68.7967 86.8799 68.7967 86.5878C68.7967 86.2958 68.5611 86.0591 68.2704 86.0591C67.9798 86.0591 67.7441 86.2958 67.7441 86.5878C67.7441 86.8799 67.9798 87.1165 68.2704 87.1165Z" fill="white"/>
<path d="M77.2933 90.0323C77.5922 90.0323 77.8346 89.7887 77.8346 89.4884C77.8346 89.188 77.5922 88.9445 77.2933 88.9445C76.9944 88.9445 76.752 89.188 76.752 89.4884C76.752 89.7887 76.9944 90.0323 77.2933 90.0323Z" fill="white"/>
<path d="M72.4816 93.3859C73.2955 93.3859 73.9551 92.7231 73.9551 91.9054C73.9551 91.0877 73.2955 90.4249 72.4816 90.4249C71.6677 90.4249 71.0078 91.0877 71.0078 91.9054C71.0078 92.7231 71.6677 93.3859 72.4816 93.3859Z" fill="white"/>
<path d="M82.9925 88.9445C83.6072 88.9445 84.1053 88.444 84.1053 87.8266C84.1053 87.2093 83.6072 86.7087 82.9925 86.7087C82.378 86.7087 81.8799 87.2093 81.8799 87.8266C81.8799 88.444 82.378 88.9445 82.9925 88.9445Z" fill="white"/>
<path d="M76.6617 87.2677C76.1078 87.2706 75.5656 87.1084 75.1037 86.8014C74.6418 86.4946 74.2808 86.0567 74.0669 85.5435C73.8528 85.0305 73.7953 84.465 73.9016 83.9189C74.0078 83.3729 74.273 82.8708 74.6635 82.4763C75.054 82.0818 75.5525 81.8127 76.0955 81.7032C76.6384 81.5935 77.2015 81.6481 77.7136 81.8605C78.2255 82.0726 78.6632 82.4328 78.9712 82.8952C79.2791 83.3575 79.4435 83.9014 79.4435 84.4577C79.4435 85.2004 79.1511 85.9128 78.6297 86.4394C78.1084 86.9659 77.4008 87.2636 76.6617 87.2677ZM76.6617 82.7355C76.3286 82.7355 76.0029 82.8349 75.7259 83.0207C75.449 83.2067 75.2332 83.471 75.1057 83.78C74.9782 84.0892 74.9448 84.4294 75.0097 84.7577C75.0748 85.0859 75.2351 85.3873 75.4707 85.624C75.7064 85.8607 76.0063 86.0217 76.333 86.087C76.6598 86.1523 76.9985 86.1188 77.3062 85.9907C77.6139 85.8626 77.8769 85.6458 78.062 85.3676C78.2472 85.0893 78.3458 84.7622 78.3458 84.4276C78.3379 83.984 78.157 83.5616 77.8421 83.2507C77.5271 82.9399 77.1032 82.7659 76.6617 82.7659V82.7355Z" fill="white"/>
<path d="M74.9132 86.1024L71.9355 91.4569L72.8151 91.9505L75.7927 86.5961L74.9132 86.1024Z" fill="white"/>
<path d="M83.2177 88.748L78.0146 85.5304L78.5411 84.6693L83.744 87.887L83.2177 88.748Z" fill="white"/>
<path d="M70.9499 82.1054L70.667 83.0768L74.2894 84.1417L74.5724 83.1703L70.9499 82.1054Z" fill="white"/>
<path d="M77.3089 82.3277L76.3164 82.1919L77.2036 75.5448L78.2112 75.6808L77.3089 82.3277Z" fill="white"/>
<path d="M81.3363 80.9857L78.3906 82.9822L78.9549 83.8222L81.9004 81.8258L81.3363 80.9857Z" fill="white"/>
<path d="M76.9479 89.6545L76.5869 86.6331L77.5794 86.4973L77.9403 89.5336L76.9479 89.6545Z" fill="white"/>
<path d="M74.0531 84.9376L68.0781 86.1982L68.2852 87.1887L74.26 85.9282L74.0531 84.9376Z" fill="white"/>
<path d="M80.1804 53.8365V56.8578H79.0676C78.8201 56.3171 78.6871 55.7307 78.6765 55.1356H74.812V59.1994H78.466V60.423H74.812V64.7284H78.9472C78.958 64.0992 79.107 63.4803 79.3833 62.9157H80.4509V66.0276H72.0149V65.106C72.4092 64.8711 72.8344 64.6933 73.278 64.5773V55.3019C72.831 55.1893 72.4044 55.0057 72.0149 54.758V53.8365H80.1804ZM63.2481 53.8365V54.7881C62.8635 55.0316 62.4419 55.2102 61.9999 55.3168V59.3203H63.9097L66.6466 55.0601C66.2381 55.2508 65.7791 55.3037 65.3383 55.2111V53.8365H69.3533V54.7881C68.955 55.0293 68.5247 55.2124 68.0751 55.332L65.0676 59.864L68.1503 64.6981H69.4434V65.7556C69.2704 65.8981 69.071 66.0047 68.8569 66.0695C68.6428 66.1342 68.418 66.1561 68.1954 66.1333C67.8153 66.1326 67.4441 66.0188 67.1284 65.8065C66.8126 65.5941 66.5664 65.2925 66.421 64.9399L63.7292 60.574H61.9999V64.8493C62.434 64.6381 62.9232 64.5695 63.3984 64.6529V66.0276H59.2179V65.106C59.6086 64.8749 60.0284 64.6971 60.4661 64.5773V55.0298C60.0843 55.2366 59.6422 55.3008 59.2179 55.2111V53.8365H63.2481ZM53.7893 64.9097C54.2272 64.7111 54.7126 64.6431 55.1879 64.7133V66.0881H51.0075V65.1664C51.4012 64.9415 51.8203 64.7642 52.2555 64.6377V55.1054C51.8739 55.3122 51.4317 55.3764 51.0075 55.2867V53.9271H55.0224V54.7881C54.6408 55.0233 54.2247 55.1965 53.7893 55.3019V64.9097ZM40.7968 64.5168V55.0298C40.4361 55.181 39.8947 55.3924 39.5488 55.2111V53.8365H43.5788V54.7881C43.1917 55.0266 42.7709 55.2048 42.3306 55.3168V64.7586H45.9247C45.9457 64.0788 46.0883 63.4085 46.3458 62.7797H47.4586V66.0578H39.5788V65.1363C39.9709 64.9078 40.3903 64.7301 40.827 64.6076" fill="white"/>
</g>
<defs>
<clipPath id="clip0_2598_2585">
<rect width="104" height="92" fill="white" transform="translate(8 14)"/>
</clipPath>
</defs>
</svg>
