<svg width="120" height="120" viewBox="0 0 120 120" fill="none" xmlns="http://www.w3.org/2000/svg">
<path fill-rule="evenodd" clip-rule="evenodd" d="M34 14C22.9543 14 14 22.9543 14 34V86C14 97.0457 22.9543 106 34 106H86C97.0457 106 106 97.0457 106 86V34C106 22.9543 97.0457 14 86 14H34ZM39 54C47.2843 54 54 47.2843 54 39C54 30.7157 47.2843 24 39 24C30.7157 24 24 30.7157 24 39C24 47.2843 30.7157 54 39 54ZM75 96C86.598 96 96 86.598 96 75C96 63.402 86.598 54 75 54C63.402 54 54 63.402 54 75C54 86.598 63.402 96 75 96Z" fill="#121212"/>
</svg>
