<svg width="120" height="120" viewBox="0 0 120 120" fill="none" xmlns="http://www.w3.org/2000/svg">
<path fill-rule="evenodd" clip-rule="evenodd" d="M17.2281 53.8478C16.0155 53.8478 15.0779 52.777 15.3004 51.585C19.2434 30.4619 37.757 14.4741 60.0005 14.4741C82.244 14.4741 100.758 30.4619 104.701 51.585C104.923 52.777 103.985 53.8478 102.773 53.8478H73.6787C73.0118 53.8478 72.4294 53.4065 72.2118 52.7761C71.7489 51.4349 71.1705 50.1476 70.4886 48.9261C67.7714 44.0593 63.4335 38.2141 58.1569 38.2141C53.2309 38.2141 48.5424 44.0593 45.8252 48.9261C45.1432 50.1476 44.5649 51.4349 44.102 52.7761C43.8844 53.4065 43.302 53.8478 42.6351 53.8478H17.2281ZM58.1569 33.0046C55.753 33.7545 52.4866 35.5589 51.1787 36.3088C50.793 36.53 50.4169 36.7671 50.0545 37.0247C47.5628 38.7963 45.364 40.9537 43.5448 43.4097C41.231 46.5336 37.8293 48.9261 33.9446 48.9261C27.4344 48.9261 22.7725 42.5938 26.4321 37.2035C33.7289 26.4557 46.0412 19.3958 60.0005 19.3958C77.1877 19.3958 91.8779 30.0982 97.7846 45.2091C98.5008 47.0415 97.0807 48.9261 95.1152 48.9261C93.9424 48.9261 92.892 48.2267 92.3466 47.1873C87.5153 37.9799 77.8704 31.7001 66.7603 31.7001C63.7641 31.7001 60.8744 32.1569 58.1569 33.0046ZM74.5049 46.0415C72.3125 42.2877 69.2991 39.073 65.7111 36.6444C66.0333 36.6305 66.2335 36.6218 66.7603 36.6218C72.7141 36.6218 78.1607 38.7952 82.352 42.3926C85.2355 44.8676 83.0155 48.9261 79.2173 48.9261C77.2487 48.9261 75.4986 47.7428 74.5049 46.0415Z" fill="#121212"/>
<path fill-rule="evenodd" clip-rule="evenodd" d="M17.2281 66.1521C16.0155 66.1521 15.0779 67.223 15.3004 68.4149C19.2434 89.538 37.757 105.526 60.0005 105.526C82.244 105.526 100.758 89.538 104.701 68.4149C104.923 67.2229 103.985 66.1521 102.773 66.1521H73.6787C73.0118 66.1521 72.4294 66.5935 72.2118 67.2239C71.7489 68.5651 71.1705 69.8524 70.4886 71.0738C67.7714 75.9407 63.4335 81.7858 58.1569 81.7858C53.2309 81.7858 48.5424 75.9407 45.8252 71.0738C45.1432 69.8524 44.5649 68.5651 44.102 67.2239C43.8844 66.5935 43.302 66.1521 42.6351 66.1521H17.2281ZM58.1569 86.9953C55.753 86.2454 52.4866 84.441 51.1787 83.6911C50.793 83.47 50.4169 83.2329 50.0545 82.9752C47.5628 81.2036 45.364 79.0463 43.5448 76.5902C41.231 73.4664 37.8293 71.0738 33.9446 71.0738C27.4344 71.0738 22.7725 77.4062 26.4321 82.7964C33.7289 93.5442 46.0412 100.604 60.0005 100.604C77.1877 100.604 91.8779 89.9018 97.7846 74.7909C98.5008 72.9585 97.0807 71.0738 95.1152 71.0738C93.9424 71.0738 92.892 71.7732 92.3466 72.8127C87.5153 82.02 77.8704 88.2998 66.7603 88.2998C63.7641 88.2998 60.8744 87.8431 58.1569 86.9953ZM74.505 73.9584C72.3125 77.7123 69.2991 80.927 65.7112 83.3555C66.0333 83.3695 66.2335 83.3781 66.7603 83.3781C72.7141 83.3781 78.1607 81.2048 82.352 77.6074C85.2355 75.1324 83.0155 71.0738 79.2173 71.0738C77.2487 71.0738 75.4986 72.2571 74.505 73.9584Z" fill="#121212"/>
</svg>
