<svg width="300" height="120" viewBox="0 0 300 120" fill="none" xmlns="http://www.w3.org/2000/svg">
<path d="M22.0762 32.8305V36.2267H27.3592V83.7739H22.8309V91.321H41.3215V83.7739H36.7932V63.0191H51.8875V55.0946H36.7932V28.3022H25.095L22.0762 32.8305Z" fill="#121212"/>
<path d="M126.227 28.6795H116.793V90.9437H126.227V68.3022L132.642 61.5097L150.378 90.9437H162.831L140.189 52.0757L160.189 28.6795H145.85L126.227 50.189V28.6795Z" fill="#121212"/>
<path d="M241.699 28.6795H232.265V90.9437H241.699V63.7739H268.114V90.9437H277.925V28.6795H268.114V54.3399H241.699V28.6795Z" fill="#121212"/>
<path fill-rule="evenodd" clip-rule="evenodd" d="M76.4158 80.755C88.0867 80.755 97.5479 71.2938 97.5479 59.6229C97.5479 47.952 88.0867 38.4908 76.4158 38.4908C64.7449 38.4908 55.2837 47.952 55.2837 59.6229C55.2837 71.2938 64.7449 80.755 76.4158 80.755ZM76.4158 91.321C93.9222 91.321 108.114 77.1293 108.114 59.6229C108.114 42.1165 93.9222 27.9248 76.4158 27.9248C58.9094 27.9248 44.7177 42.1165 44.7177 59.6229C44.7177 77.1293 58.9094 91.321 76.4158 91.321Z" fill="#121212"/>
<path fill-rule="evenodd" clip-rule="evenodd" d="M191.887 81.5097C203.558 81.5097 213.02 72.0486 213.02 60.3776C213.02 48.7067 203.558 39.2456 191.887 39.2456C180.217 39.2456 170.755 48.7067 170.755 60.3776C170.755 72.0486 180.217 81.5097 191.887 81.5097ZM191.887 92.0757C209.394 92.0757 223.586 77.884 223.586 60.3776C223.586 42.8712 209.394 28.6795 191.887 28.6795C174.381 28.6795 160.189 42.8712 160.189 60.3776C160.189 77.884 174.381 92.0757 191.887 92.0757Z" fill="#121212"/>
<path d="M83.2082 59.6229C83.2082 63.3743 80.1672 66.4154 76.4158 66.4154C72.6644 66.4154 69.6233 63.3743 69.6233 59.6229C69.6233 55.8715 72.6644 52.8305 76.4158 52.8305C80.1672 52.8305 83.2082 55.8715 83.2082 59.6229Z" fill="#121212"/>
</svg>
