<svg width="120" height="120" viewBox="0 0 120 120" fill="none" xmlns="http://www.w3.org/2000/svg">
<path d="M65.9105 23.3367V14.9463H27.1048V23.3367H65.9105Z" fill="#121212"/>
<path d="M56.4713 59.6553V68.9597C56.4713 73.2897 55.1378 76.7358 52.4858 79.2979C49.8339 81.845 46.2679 83.1185 41.788 83.1185C38.1472 83.1185 35.0457 82.1297 32.4537 80.122C29.8616 78.1292 28.2585 75.4473 27.6292 72.1061H18.1899C18.6844 75.0427 19.6133 77.6947 20.9618 80.077C22.3252 82.4593 24.0333 84.497 26.1009 86.205C28.1686 87.9131 30.5209 89.2316 33.1728 90.1305C35.8248 91.0445 38.7015 91.494 41.773 91.494C45.4738 91.494 48.815 90.9696 51.7816 89.9208C54.7482 88.872 57.2953 87.3737 59.3929 85.4109C61.4906 83.4482 63.0937 81.0809 64.2174 78.2791C65.3412 75.4773 65.8955 72.3758 65.8955 68.9447V59.6553H56.4713Z" fill="#121212"/>
<path d="M65.9854 28.4309H56.4713V54.5611H65.9854V28.4309Z" fill="#121212"/>
<path d="M92.3254 28.4908V83.0286C92.3254 87.2239 91.1867 90.5501 88.8943 92.9923C86.6169 95.4345 83.3506 96.5882 79.1404 96.5882C74.8553 96.5882 71.649 95.4345 69.4015 92.9773C67.6485 91.0595 66.5398 88.6173 66.1502 85.6357C65.2663 87.0291 64.2324 88.2727 63.0338 89.3964C61.6104 90.7149 59.9923 91.8386 58.1793 92.7376C59.1532 95.1948 60.5616 97.3523 62.3895 99.1802C66.33 103.091 71.9187 105.054 79.1554 105.054C86.3922 105.054 91.9808 103.106 95.9063 99.2401C99.8468 95.3596 101.81 89.9507 101.81 83.0286V28.4908H92.3254Z" fill="#121212"/>
</svg>
