<svg width="224" height="120" viewBox="0 0 224 120" fill="none" xmlns="http://www.w3.org/2000/svg">
<path d="M168.476 74.9813H158.43V92.2829H140.012V27.1694H169.778C175.669 27.1694 180.785 28.1616 185.126 30.146C189.467 32.0684 192.816 34.859 195.172 38.5178C197.529 42.1145 198.707 46.3624 198.707 51.2614C198.707 55.9744 197.591 60.0982 195.358 63.633C193.188 67.1057 190.056 69.8342 185.963 71.8186L200.009 92.2829H180.289L168.476 74.9813ZM180.103 51.2614C180.103 48.2228 179.142 45.8663 177.22 44.1919C175.297 42.5176 172.445 41.6804 168.662 41.6804H158.43V60.7494H168.662C172.445 60.7494 175.297 59.9432 177.22 58.3309C179.142 56.6565 180.103 54.3 180.103 51.2614Z" fill="#121212"/>
<path d="M107.072 92.3928C103.265 92.3928 99.5141 91.9729 95.8191 91.1331C92.1242 90.2375 89.1573 89.0896 86.9177 87.6901L91.7043 76.7733C93.7759 78.061 96.239 79.0965 99.0942 79.8804C101.949 80.6081 104.777 80.9721 107.576 80.9721C110.151 80.9721 111.971 80.7202 113.034 80.2163C114.154 79.6566 114.714 78.8727 114.714 77.865C114.714 76.8573 114.042 76.1574 112.698 75.7656C111.411 75.3176 109.339 74.8977 106.484 74.506C102.845 74.058 99.7382 73.4702 97.1627 72.7425C94.6435 72.0148 92.4601 70.6712 90.6126 68.7116C88.7652 66.7521 87.8414 64.009 87.8414 60.482C87.8414 57.571 88.7093 54.9955 90.4447 52.7563C92.1804 50.4608 94.6997 48.6696 98.0025 47.3818C101.362 46.0382 105.365 45.3664 110.011 45.3664C113.314 45.3664 116.589 45.7023 119.836 46.3741C123.083 47.0459 125.798 47.9978 127.982 49.2293L123.195 60.0622C119.164 57.8229 114.798 56.7031 110.095 56.7031C107.576 56.7031 105.728 57.0109 104.553 57.6269C103.377 58.1866 102.789 58.9424 102.789 59.8942C102.789 60.9578 103.433 61.7136 104.721 62.1615C106.008 62.5533 108.136 62.9732 111.103 63.4212C114.854 63.9809 117.961 64.6249 120.424 65.3526C122.887 66.0803 125.015 67.4239 126.806 69.3835C128.654 71.2868 129.577 73.974 129.577 77.4451C129.577 80.3003 128.71 82.8754 126.974 85.1709C125.239 87.4101 122.664 89.1736 119.248 90.4613C115.889 91.7491 111.831 92.3928 107.072 92.3928Z" fill="#121212"/>
<path d="M50.097 92.2298C45.082 92.2298 40.2148 91.6103 35.4949 90.3713C30.775 89.1324 26.9401 87.4803 23.9902 85.4155L29.7426 72.4948C32.5155 74.3239 35.7309 75.7986 39.3888 76.9197C43.0467 78.0408 46.6456 78.6012 50.1855 78.6012C56.9113 78.6012 60.2742 76.9197 60.2742 73.5568C60.2742 71.7869 59.3007 70.4888 57.3538 69.6629C55.4659 68.778 52.3979 67.8636 48.15 66.9195C43.4892 65.9166 39.5953 64.8547 36.4684 63.7336C33.3415 62.5537 30.657 60.6953 28.4151 58.1583C26.1732 55.6212 25.0522 52.1995 25.0522 47.8926C25.0522 44.1166 26.0847 40.7243 28.1496 37.7154C30.2145 34.6473 33.2825 32.2285 37.3533 30.4586C41.4832 28.6886 46.5277 27.8036 52.4864 27.8036C56.5573 27.8036 60.5691 28.2756 64.5221 29.2196C68.475 30.1046 71.9558 31.432 74.9647 33.202L69.5664 46.2111C63.6665 43.0252 57.9438 41.4322 52.3979 41.4322C48.9171 41.4322 46.3801 41.9632 44.7871 43.0252C43.1942 44.0281 42.3977 45.3555 42.3977 47.0076C42.3977 48.6596 43.3417 49.8986 45.2296 50.7245C47.1175 51.5503 50.1561 52.4059 54.3448 53.2909C59.0646 54.2938 62.9585 55.3855 66.0265 56.5653C69.1533 57.6864 71.8379 59.5151 74.0798 62.0521C76.3807 64.5301 77.5312 67.9224 77.5312 72.2294C77.5312 75.9462 76.4986 79.3092 74.4338 82.3181C72.3689 85.327 69.2715 87.7458 65.1415 89.5748C61.0115 91.3448 55.9969 92.2298 50.097 92.2298Z" fill="#121212"/>
<path d="M85.1135 27.3634V38.9908H131.3V27.3634H85.1135Z" fill="#121212"/>
</svg>
