<svg width="120" height="120" viewBox="0 0 120 120" fill="none" xmlns="http://www.w3.org/2000/svg">
<path d="M14.8237 25.1498C14.8237 19.4469 19.4469 14.8237 25.1498 14.8237H47.0926V68.7774H14.8237V25.1498Z" fill="#121212"/>
<path d="M14.8237 88.1388H47.0926V105.177H25.1498C19.4469 105.177 14.8237 100.554 14.8237 94.851V88.1388Z" fill="#121212"/>
<path d="M82.5884 14.8237H50.3195V52.6429H82.5884V14.8237Z" fill="#121212"/>
<path d="M82.5884 72.0044H50.3195V105.177H82.5884V72.0044Z" fill="#121212"/>
<path d="M66.4539 55.8697H50.3195V68.7773H66.4539V55.8697Z" fill="#121212"/>
<path d="M30.9582 72.0044H14.8237V84.9119H30.9582V72.0044Z" fill="#121212"/>
<path d="M85.815 14.8237H94.8503C100.554 14.8237 105.177 19.4469 105.177 25.1498V52.6429H85.815V14.8237Z" fill="#121212"/>
<path d="M85.815 72.0044H105.177V94.851C105.177 100.554 100.554 105.177 94.8503 105.177H85.815V72.0044Z" fill="#121212"/>
<path d="M82.5884 55.8697H66.4539V68.7773H82.5884V55.8697Z" fill="#121212"/>
<path d="M47.0926 72.0044H30.9582V84.9119H47.0926V72.0044Z" fill="#121212"/>
<path d="M105.177 55.8697H85.815V68.7773H105.177V55.8697Z" fill="#121212"/>
</svg>
