<svg width="228" height="120" viewBox="0 0 228 120" fill="none" xmlns="http://www.w3.org/2000/svg">
<path d="M32.6788 91.7499H52.3931L63.2623 72.6077H63.6144L74.5717 91.7499H95.3421L75.7598 60.0221V59.6701L95.4301 28.2504H74.7477L64.7145 48.4929H64.3624L54.3733 28.2504H32.6348L51.381 59.5821V59.9342L32.6788 91.7499ZM117.609 54.6975C123.505 54.6975 127.378 50.6931 127.378 45.1484C127.378 39.6038 123.505 35.5993 117.609 35.5993C111.712 35.5993 107.84 39.6038 107.84 45.1484C107.84 50.6931 111.712 54.6975 117.609 54.6975ZM117.609 84.357C123.505 84.357 127.378 80.3525 127.378 74.8079C127.378 69.2632 123.505 65.2588 117.609 65.2588C111.712 65.2588 107.84 69.2632 107.84 74.8079C107.84 80.3525 111.712 84.357 117.609 84.357ZM159.414 66.5349H167.554C173.1 66.5349 176.356 68.6912 176.356 72.2116V72.2996C176.356 76.3921 172.879 78.7244 167.731 78.7244C161.966 78.7244 158.357 76.3921 158.357 72.2996V72.2116H140.58V72.2996C140.58 84.4891 151.317 93.5101 167.334 93.5101C183.616 93.5101 195.366 85.8532 195.366 73.8838V73.7957C195.366 65.7868 189.777 60.0221 181.02 59.1861V58.3059C188.105 57.0738 193.165 51.2651 193.165 44.0923V44.0043C193.165 33.267 182.825 26.4902 167.818 26.4902C151.977 26.4902 141.723 34.7632 141.723 47.5247V47.6127H158.577V47.5247C158.577 43.5642 162.098 41.2759 167.423 41.2759C172.615 41.2759 175.828 43.1682 175.828 46.6886V46.7766C175.828 50.6931 172.659 52.8934 167.643 52.8934H159.414V66.5349Z" fill="#121212"/>
</svg>
