<svg width="336" height="120" viewBox="0 0 336 120" fill="none" xmlns="http://www.w3.org/2000/svg">
<path d="M53.8042 92.8002C65.6362 92.8002 74.3336 87.8285 78.4395 79.249C79.1459 77.7971 79.4991 76.5212 79.4991 75.1573C79.4991 72.5614 77.6448 70.7135 74.9517 70.7135C72.7884 70.7135 71.508 71.6815 70.4485 74.0133C67.4905 80.8769 61.5303 84.1767 53.76 84.1767C42.0605 84.1767 34.6434 74.8053 34.6434 59.9782C34.6434 45.2831 42.1488 35.8237 53.7159 35.8237C61.0447 35.8237 67.3139 39.6074 70.2719 46.691C71.3756 49.2429 72.9208 50.3868 75.2607 50.3868C77.9097 50.3868 79.6757 48.6709 79.6757 46.031C79.6757 44.8431 79.3666 43.5232 78.7485 42.2473C74.7751 32.8758 65.4154 27.2002 53.7159 27.2002C35.9237 27.2002 24.5332 39.8714 24.5332 59.9782C24.5332 80.217 35.7913 92.8002 53.8042 92.8002Z" fill="#121212"/>
<path d="M111.419 92.8002C126.297 92.8002 135.745 85.2767 135.745 73.3094C135.745 64.0699 130.271 58.7463 116.894 55.9304L109.962 54.4785C101.706 52.7186 98.395 49.6388 98.395 45.0191C98.395 39.2115 103.914 35.6037 111.375 35.6037C117.732 35.6037 122.589 38.1115 124.752 43.9632C125.768 46.251 127.224 47.351 129.609 47.351C132.169 47.351 133.979 45.6791 133.979 43.1272C133.979 42.2033 133.847 41.4553 133.626 40.8394C131.154 32.3479 122.5 27.2002 111.507 27.2002C97.9535 27.2002 88.3731 34.6797 88.3731 45.5471C88.3731 54.6985 94.1566 60.5942 106.872 63.278L113.847 64.7299C122.368 66.5778 125.723 69.6576 125.723 74.5853C125.723 80.261 119.94 84.3967 111.86 84.3967C104.488 84.3967 98.704 81.6249 96.7173 75.6852C95.746 73.3094 94.2891 72.2974 92.0375 72.2974C89.3444 72.2974 87.5784 74.1453 87.5784 77.0052C87.5784 78.0611 87.7991 79.117 88.1082 80.085C90.5805 87.4765 99.0572 92.8002 111.419 92.8002Z" fill="#121212"/>
<path d="M149.564 92.4482C152.61 92.4482 154.509 90.5123 154.509 87.3445V32.6559C154.509 29.4881 152.61 27.5522 149.564 27.5522C146.474 27.5522 144.619 29.4881 144.619 32.6559V87.3445C144.619 90.5123 146.474 92.4482 149.564 92.4482Z" fill="#121212"/>
<path d="M187.003 92.4482C190.049 92.4482 191.947 90.5123 191.947 87.3445V36.7916H207.532C210.269 36.7916 212.124 35.1197 212.124 32.5239C212.124 29.928 210.269 28.2561 207.532 28.2561H166.429C163.692 28.2561 161.837 29.928 161.837 32.5239C161.837 35.1197 163.692 36.7916 166.429 36.7916H182.058V87.3445C182.058 90.5123 183.912 92.4482 187.003 92.4482Z" fill="#121212"/>
<path d="M274.745 92.7682C273.786 92.7701 272.855 92.4452 272.108 91.8474C264.483 85.7828 257.106 79.3579 250.184 72.7534C241.558 64.5187 238.385 59.1123 238.069 52.1065C237.735 44.7506 240.658 39.9921 241.248 39.1134C243.198 36.2165 245.735 33.7567 248.696 31.8916C251.074 30.3829 253.757 29.4148 256.554 29.0566C259.372 28.6988 262.234 28.9817 264.925 29.8841C267.17 30.6385 269.289 31.724 271.21 33.1045C272.491 34.0289 273.675 35.0805 274.742 36.2431C275.817 35.0677 277.011 34.0053 278.305 33.0727C280.226 31.6918 282.344 30.6059 284.59 29.8512C287.281 28.9498 290.142 28.6672 292.959 29.0247C295.754 29.3838 298.436 30.3514 300.813 31.8587C303.774 33.7245 306.311 36.1846 308.261 39.0816C308.851 39.9603 311.774 44.7188 311.44 52.0747C311.122 59.0839 307.953 64.4869 299.327 72.7193C292.495 79.2249 285.237 85.5544 277.737 91.5382C277.344 91.9287 276.877 92.2383 276.364 92.4493C275.851 92.6603 275.301 92.7687 274.745 92.7682ZM258.954 37.3219C256.934 37.3229 254.956 37.8975 253.252 38.9782C251.278 40.2174 249.585 41.8532 248.284 43.7809C248.263 43.8105 246.293 46.8092 246.517 51.728C246.697 55.7066 248.268 59.2658 256.038 66.6808C261.97 72.3419 268.246 77.8688 274.724 83.1388C281.22 77.8574 287.509 72.3214 293.453 66.649C301.223 59.234 302.794 55.6725 302.975 51.695C303.203 46.7774 301.228 43.7787 301.208 43.7491C299.907 41.8221 298.217 40.1863 296.244 38.9463C293.578 37.248 290.229 36.832 287.293 37.8164C285.851 38.3013 284.489 38.9987 283.254 39.8853C281.325 41.2815 279.758 43.1149 278.683 45.2337C278.381 45.9946 277.863 46.6516 277.192 47.124C276.521 47.5965 275.726 47.864 274.904 47.8938C274.082 47.9236 273.27 47.7144 272.566 47.2918C271.862 46.8692 271.297 46.2516 270.94 45.5145C269.863 43.2914 268.249 41.3686 266.242 39.9182C265.007 39.0328 263.644 38.3372 262.201 37.855C261.155 37.5021 260.058 37.322 258.954 37.3219Z" fill="#121212"/>
</svg>
