<svg width="120" height="120" viewBox="0 0 120 120" fill="none" xmlns="http://www.w3.org/2000/svg">
<path d="M80.4429 17.3777C81.3073 16.5519 84.1213 14.4873 86.9996 14.9736C93.5931 16.0839 93.3908 23.7367 92.7287 27.2419C89.4917 44.144 75.5139 58.5502 73.8586 55.9534C73.5092 55.412 73.5551 54.2926 74.2264 51.4664C75.2748 46.9518 76.7921 43.1071 76.5438 27.875C76.4499 25.9533 76.7469 24.0324 77.417 22.2283C78.0871 20.4242 79.1164 18.7742 80.4429 17.3777Z" fill="#121212"/>
<path d="M36.1552 84.3346C34.9598 84.3346 31.5573 83.8024 29.8192 81.4075C25.9477 75.9753 31.5113 70.6992 34.4172 68.6896C48.6617 58.9998 68.7824 58.697 68.1479 61.6976C68.01 62.3307 67.2283 63.0831 64.7086 64.6155C60.7636 67.0655 56.9657 68.7171 46.3168 79.6549C45.0264 81.0778 43.4611 82.2259 41.7149 83.0301C39.9687 83.8342 38.0776 84.278 36.1552 84.3346Z" fill="#121212"/>
<path d="M29.4422 51.8059C28.6146 50.9433 26.5455 48.1355 27.0329 45.2634C28.1456 38.6934 35.815 38.8953 39.3278 39.556C56.2668 42.7492 70.7044 56.7242 68.1019 58.4217C67.5594 58.7796 66.4375 58.7245 63.6051 58.0639C59.0807 57.0086 55.2276 55.4946 39.9624 55.7515C38.0328 55.8359 36.106 55.5298 34.2981 54.8517C32.4901 54.1736 30.8384 53.1376 29.4422 51.8059Z" fill="#121212"/>
<path d="M63.8902 102.622C63.0258 103.448 60.2118 105.513 57.3335 105.026C50.7492 103.916 50.9515 96.2633 51.6136 92.7581C54.8138 75.856 68.8192 61.4498 70.5205 64.0466C70.8791 64.588 70.824 65.7074 70.1619 68.5336C69.1043 73.0482 67.5962 76.8929 67.8445 92.125C67.929 94.0504 67.6223 95.9729 66.9427 97.777C66.2631 99.581 65.2248 101.229 63.8902 102.622Z" fill="#121212"/>
<path d="M47.7697 24.0762C47.7697 22.8833 48.3031 19.4882 50.7032 17.7539C56.1472 13.9 61.4349 19.4882 63.4488 22.4061C73.1597 36.6105 73.4632 56.6875 70.4193 56.0543C69.7848 55.9167 69.0308 55.0909 67.495 52.6225C65.0397 48.6861 63.3844 44.8964 52.4229 34.2706C50.9969 32.9735 49.8494 31.4013 49.0496 29.6491C48.2498 27.8969 47.8144 26.001 47.7697 24.0762Z" fill="#121212"/>
</svg>
