<svg width="150" height="120" viewBox="0 0 150 120" fill="none" xmlns="http://www.w3.org/2000/svg">
<path d="M60.1098 104.74C59.3516 104.671 58.3867 104.396 57.6974 104.12L57.215 103.913L57.146 102.466V101.018H57.215C57.8353 101.294 59.2827 101.846 59.7651 101.983C60.3855 102.121 60.6611 102.121 61.4882 102.121C62.3153 102.121 62.4532 102.121 62.7289 101.983C62.9356 101.914 63.2113 101.777 63.2802 101.708C63.6938 101.294 63.8316 100.605 63.5559 100.053C63.3492 99.571 62.8667 99.2264 61.2125 98.3993C59.4205 97.5033 58.8002 97.0898 58.2488 96.4695C57.5596 95.6424 57.3528 94.9531 57.3528 93.8504C57.3528 92.1273 58.0421 90.9556 59.4894 90.2663C60.3855 89.7839 61.0058 89.7149 62.3153 89.7149C63.4181 89.7149 63.9006 89.7149 64.7966 89.9906C65.4169 90.1974 66.3818 90.542 66.5886 90.6799L66.6575 90.7488L66.175 91.8516C65.8993 92.5408 65.6926 93.0233 65.6926 93.0922C65.6237 93.0922 65.279 92.9544 64.8655 92.8165C63.6938 92.403 63.2802 92.334 62.3842 92.334C61.6261 92.334 61.4882 92.334 61.2125 92.4719C60.6611 92.7476 60.4544 93.0922 60.3855 93.5057C60.3165 94.5396 60.5233 94.8153 62.6599 95.8492C63.487 96.2627 64.4519 96.8141 64.7966 97.0209C66.244 97.9858 66.7954 99.1575 66.7264 100.812C66.6575 101.914 66.3129 102.673 65.5547 103.431C64.383 104.534 62.5221 104.947 60.1098 104.74ZM71.4822 104.74C70.724 104.671 69.7591 104.396 69.0698 104.12L68.5874 103.913L68.5184 102.466V101.018H68.5874C69.2077 101.294 70.6551 101.846 71.1375 101.983C71.7579 102.121 72.0335 102.121 72.8606 102.121C73.6877 102.121 73.8256 102.121 74.1013 101.983C74.308 101.914 74.5837 101.777 74.6526 101.708C75.0662 101.294 75.204 100.605 74.9283 100.053C74.7216 99.571 74.1702 99.2264 72.8606 98.5372C70.6551 97.5033 70.1037 97.0898 69.4834 96.2627C68.8631 95.4356 68.5874 94.4018 68.7252 93.299C68.7941 92.5408 69.0009 92.0584 69.3455 91.507C69.7591 90.9556 70.1726 90.611 70.9308 90.2663C71.7579 89.7839 72.3782 89.7149 73.6877 89.7149C74.7905 89.7149 75.273 89.7149 76.169 89.9906C76.7893 90.1974 77.7542 90.542 77.961 90.6799L78.0299 90.7488L77.5474 91.8516C77.2717 92.5408 77.065 93.0233 77.065 93.0922C76.9961 93.0922 76.6514 92.9544 76.2379 92.8165C75.0662 92.403 74.6526 92.334 73.7566 92.334C72.9985 92.334 72.8606 92.334 72.5849 92.4719C72.0335 92.7476 71.8268 93.0922 71.7579 93.5057C71.6889 94.5396 71.8957 94.8153 74.0323 95.8492C76.4447 97.0898 77.2028 97.6412 77.6853 98.675C78.0299 99.3643 78.0988 99.9846 78.0988 100.812C78.0299 101.914 77.6853 102.673 76.9271 103.431C75.7554 104.534 73.8945 104.947 71.4822 104.74ZM85.6115 104.74C83.4059 104.465 81.7518 103.362 81.0625 101.57C80.7179 100.605 80.7179 100.536 80.7179 94.9531V89.8528H82.3032H83.8195V94.8153C83.8195 100.122 83.8195 100.191 84.1641 100.95C84.6466 101.846 85.5426 102.259 86.99 102.19C88.5063 102.121 89.2645 101.501 89.5402 100.053C89.678 99.7089 89.678 98.7439 89.678 94.7464V89.8528H91.2632H92.7796V95.1599C92.7106 100.467 92.7106 100.536 92.5728 101.018C92.0214 102.948 90.574 104.189 88.5063 104.602C87.7481 104.74 86.3697 104.809 85.6115 104.74ZM44.8087 96.6073C43.0167 96.1938 40.6733 95.6424 38.8124 95.2288C36.2622 94.8153 34.5391 94.195 32.4714 93.0922C28.1292 90.8866 24.8898 87.5783 22.7531 83.2361C22.1328 82.0644 21.3058 79.9278 21.3058 79.6521V79.5832L21.5125 79.5142C21.5814 79.5142 21.6504 79.4453 21.7193 79.4453C21.7193 79.4453 22.2018 79.9278 22.7531 80.5481C23.9938 81.9266 25.0966 83.0983 25.7169 83.5807C26.475 84.27 27.0953 84.6146 29.5077 85.9241C30.7483 86.6823 31.8511 87.3026 31.92 87.3026C32.0578 87.3715 32.5403 87.7162 33.1606 88.0608C34.4702 88.8189 37.0893 90.4731 37.8474 91.0245C38.4677 91.438 39.6394 92.2651 39.9841 92.5408L40.1908 92.6787V92.6097C40.1908 92.6097 39.9841 92.334 39.7773 92.1273C37.6407 89.7839 36.2622 86.7512 35.6419 83.0294C35.5729 82.5469 35.504 81.9955 35.504 81.7198C35.2973 80.2724 34.8837 77.5844 34.5391 75.9302C34.1255 74.2761 34.1255 74.2761 34.4012 74.1382C34.608 74.0004 34.7459 74.1382 35.4351 74.8964C36.1243 75.7234 36.6068 76.3438 37.0203 77.1019C37.5028 77.8601 38.3299 79.5832 38.6056 80.3413C38.8124 80.9616 39.7773 83.6497 40.053 84.6146C40.2598 85.166 41.3625 88.1986 41.6382 88.9568C42.741 91.9894 44.3262 94.8153 45.4979 96.1248C45.7736 96.4005 45.7736 96.4005 45.7047 96.6073C45.6358 96.8141 45.4979 96.8141 44.8087 96.6073ZM104.221 96.7452C104.083 96.6073 104.152 96.4005 104.566 95.9181C104.91 95.5045 106.013 93.9193 106.013 93.8504C106.013 93.7814 106.151 93.5057 106.358 93.1611C106.564 92.8854 106.909 92.1962 107.116 91.7137C107.667 90.611 108.012 89.7839 109.252 86.3377C109.321 86.062 109.459 85.6485 109.528 85.3728C109.666 85.166 109.804 84.6146 110.01 84.2011C110.148 83.7875 110.286 83.2361 110.424 83.0294C110.493 82.7537 110.631 82.3401 110.769 82.0644C111.734 79.1696 112.767 77.1019 113.939 75.6545C114.353 75.1031 115.318 74.0693 115.455 74.0693C115.455 74.0693 115.593 74.1382 115.662 74.2761C115.8 74.4139 115.8 74.4139 115.662 75.0342C115.455 75.7924 115.18 76.9641 115.111 77.4465C114.973 78.3425 114.697 80.0656 114.559 81.0306C114.077 84.5457 113.87 85.4417 113.112 87.4405C112.492 88.9568 111.527 90.4042 110.286 91.9894L109.804 92.5408V92.6097H109.873L110.217 92.334C110.7 91.9205 111.389 91.507 112.423 90.8177C113.801 89.9217 114.077 89.7149 115.938 88.6122C118.626 86.958 118.695 86.958 122.003 85.0971C123.657 84.27 124.829 83.2361 126.966 80.8238C127.517 80.2035 128.068 79.5832 128.137 79.5142L128.275 79.4453L128.413 79.5832C128.551 79.5832 128.62 79.721 128.62 79.7899C128.62 80.0656 127.862 81.8577 127.241 83.0983C124.898 87.9229 120.694 91.9894 115.938 93.8504C114.008 94.6085 113.25 94.8153 110.355 95.4356C108.908 95.7113 107.391 96.0559 106.771 96.2627C105.668 96.5384 104.428 96.8141 104.359 96.8141C104.359 96.8141 104.29 96.7452 104.221 96.7452ZM33.7809 86.2688C31.7821 85.0281 29.0941 83.2361 27.6467 82.1333C23.3735 78.8939 20.8922 76.2748 19.307 73.1044C17.8596 70.3474 17.2393 67.9351 17.2393 64.9024C17.2393 64.1443 17.2393 63.7997 17.3082 63.5929L17.446 63.3861H17.5839C17.7906 63.3861 17.8596 63.5929 18.2042 64.2821C18.4799 64.9714 19.3759 66.7634 19.7894 67.4526C20.6165 68.6932 21.2368 69.4514 23.1667 71.588C24.6141 73.1044 26.1993 75.0342 27.5089 76.8952C27.6467 77.1019 27.9913 77.6533 28.336 78.1358C28.6117 78.5493 29.0941 79.2386 29.3698 79.721C29.7144 80.1346 29.9901 80.5481 30.128 80.686C30.1969 80.7549 30.3347 80.8927 30.4037 80.9616L30.4726 81.0995H30.5415V81.0306L30.2658 80.617C29.6455 79.721 29.0252 78.2047 28.7495 76.6884C28.5427 75.4478 28.5427 71.588 28.8184 70.0717C28.8874 69.8649 28.9563 69.3136 29.0252 68.8311C29.232 67.4526 29.6455 64.9714 29.7144 64.5578C29.8523 63.524 29.9901 62.628 29.9901 62.3523C29.9901 62.0076 30.0591 61.8698 30.3347 61.8698C30.5415 61.8698 30.6104 62.0076 31.0929 63.7997C31.1618 64.0754 31.2997 64.42 31.2997 64.6267C31.5754 65.9363 31.6443 66.3498 31.7132 66.9012C32.1268 69.1068 32.4025 71.7259 32.6092 74.8274C32.816 78.9629 33.0228 80.4103 33.3674 82.0644C33.5052 82.7537 33.8499 83.8564 34.2634 84.8214C34.7459 85.9241 34.8837 86.4066 34.8148 86.4755C34.6769 86.6823 34.4702 86.6823 33.7809 86.2688ZM115.18 86.6134C115.18 86.5445 115.111 86.4066 115.111 86.3377C115.111 86.1998 115.455 85.3038 115.662 84.8214C116.145 83.7875 116.558 82.3401 116.765 81.2373C117.041 79.5832 117.11 78.7561 117.385 74.8964C117.799 68.9689 118.281 65.9363 119.177 62.9037C119.315 62.4212 119.453 62.0076 119.522 61.9387L119.591 61.8698L119.729 61.9387C119.867 62.0076 119.935 62.0766 120.004 62.9037C120.142 63.7307 120.487 65.9363 120.969 68.6932C121.245 70.692 121.314 71.2434 121.383 72.6219C121.452 75.1031 121.176 77.1019 120.625 78.825C120.418 79.3764 120.004 80.2035 119.66 80.686L119.384 81.0995V81.1684H119.453L119.591 81.0306C119.798 80.8238 120.211 80.2035 121.796 77.929C124.209 74.4139 124.967 73.5179 127.31 71.1056C128.62 69.6582 129.102 69.0379 129.86 67.9351C130.481 67.0391 131.652 64.7646 131.928 64.0064C132.135 63.455 132.342 63.2483 132.549 63.455C132.686 63.5929 132.686 63.7307 132.755 64.6957C132.824 67.2458 132.273 69.8649 131.032 72.484C130.963 72.6219 130.688 73.1733 130.412 73.6557C128.827 76.4127 126.552 78.8939 122.968 81.6509C121.727 82.6158 121.245 82.9604 119.108 84.4078C117.11 85.7174 115.524 86.6823 115.387 86.6823C115.318 86.6823 115.249 86.6134 115.18 86.6134ZM62.3153 78.2047V75.9302H74.9973H87.6792V78.2047V80.4103H74.9973H62.3153V78.2047ZM50.2537 77.033C49.9091 76.8952 47.9103 76.4127 45.8426 75.8613C43.7059 75.3099 41.845 74.8274 41.7761 74.7585C41.7071 74.7585 41.3625 74.6207 41.0179 74.5517L40.4665 74.4139V73.7936V73.1733H40.5354C40.6044 73.1733 49.4266 75.4478 50.4605 75.7924C50.9429 75.9302 51.1497 75.9302 54.9405 75.9302H58.8691V76.5505V77.1708H54.8716C50.874 77.1708 50.8051 77.1708 50.2537 77.033ZM91.1254 76.5505V75.9302H95.054C98.8448 75.9302 99.0516 75.9302 99.5341 75.7924C100.568 75.4478 109.39 73.1733 109.459 73.1733H109.528V73.7936V74.4139L108.977 74.5517C108.632 74.6207 108.287 74.7585 108.218 74.7585C108.081 74.8274 104.841 75.6545 100.775 76.6884C99.0516 77.1708 99.0516 77.1708 95.054 77.1708H91.1254V76.5505ZM51.2186 61.8009V49.05H51.8389H52.4592V61.8009V74.5517H51.8389H51.2186V61.8009ZM56.3879 61.8009V49.05H57.0082H57.6285V61.8009V74.5517H57.0082H56.3879V61.8009ZM65.1412 63.2483C65.1412 51.9448 65.1412 51.9448 65.6237 51.6691C65.8993 51.5313 66.1061 51.3934 66.1061 51.3934H66.175V62.9726V74.5517H65.6926H65.1412V63.2483ZM68.7252 62.3523V50.1528L69.2766 50.0149C69.5523 49.8771 69.8969 49.8082 69.8969 49.8082H69.9658V62.2144V74.5517H69.3455H68.7252V62.3523ZM72.516 61.9387C72.516 54.9774 72.516 49.2568 72.5849 49.2568C72.5849 49.1878 72.8606 49.1878 73.2053 49.1189H73.7566V61.8009V74.5517H73.1363H72.516V61.9387ZM76.3068 61.8009V49.1189H76.7893C77.065 49.1878 77.3407 49.1878 77.4096 49.2568H77.5474V61.9387V74.5517H76.9271H76.3068V61.8009ZM80.0976 62.1455V49.8082L80.3044 49.8771C80.3733 49.8771 80.649 49.946 80.9247 50.0149L81.3382 50.2217V62.3523V74.5517H80.7179H80.0976V62.1455ZM83.8884 62.9726V51.3934L84.0263 51.4623C84.0952 51.5313 84.3709 51.6691 84.5087 51.738C84.8533 51.9448 84.8533 51.9448 84.8533 63.2483V74.5517H84.3709H83.8884V62.9726ZM92.366 61.8009V49.05H92.9863H93.6066V61.8009V74.5517H92.9863H92.366V61.8009ZM97.5353 61.8009V49.05H98.1556H98.7759V61.8009V74.5517H98.1556H97.5353V61.8009ZM46.0493 61.8009V50.2906H46.6697H47.29V61.8009V73.3111H46.6697H46.0493V61.8009ZM102.705 61.8009V50.2906H103.325H103.945V61.8009V73.3111H103.325H102.705V61.8009ZM123.382 72.484L123.175 72.4151V72.2083C123.313 71.7259 123.313 69.8649 123.244 69.1757C123.037 67.2458 122.623 65.6606 121.383 61.3873C120.831 59.5953 120.418 57.9412 120.073 56.4248C119.798 54.9774 119.729 54.5639 119.453 52.5651C119.315 51.8069 119.177 49.5325 119.177 48.8432V48.2229H119.453C119.66 48.2229 119.66 48.2918 119.935 48.8432C120.28 49.6703 120.418 50.0149 121.659 52.1516C122.003 52.7719 122.348 53.3922 122.417 53.53C122.486 53.6679 122.692 54.0125 122.899 54.3571C123.244 54.9774 124.071 56.5627 124.347 57.183C125.243 59.3885 125.725 62.2144 125.518 64.7646C125.518 65.2471 125.449 65.6606 125.518 65.6606L125.587 65.5228C125.656 65.316 125.932 63.9375 126.208 62.628C126.345 61.732 126.621 60.6292 126.828 60.0089C127.31 58.6304 127.379 58.3547 129.378 53.53C130.55 50.4974 130.894 49.2568 130.963 46.7066L131.032 45.397H131.239H131.515L131.652 45.7417C132.342 48.8432 132.617 51.1177 132.549 53.599C132.411 56.9762 131.859 59.3885 130.619 62.2144C129.723 64.2821 128.827 65.7295 126.966 68.0729C125.863 69.3825 124.967 70.6231 124.209 71.7259C123.933 72.2083 123.588 72.6219 123.588 72.6219C123.588 72.6219 123.451 72.553 123.382 72.484ZM26.1993 72.3462C25.7858 71.7259 24.4762 69.9339 23.0288 68.0729C21.3747 65.8674 20.7544 65.0403 19.9273 63.3861C18.9623 61.4563 18.5488 60.2156 17.9285 57.6655C17.5839 56.287 17.446 54.2193 17.446 52.5651C17.5839 50.0839 17.7217 48.4297 18.2731 46.4309C18.342 46.0174 18.411 45.6038 18.4799 45.5349V45.3281H18.7556H19.0313L19.1002 46.7755C19.1691 48.2918 19.238 48.9122 19.4448 49.8082C19.5827 50.842 19.6516 50.9799 21.7882 56.3559C22.6842 58.5615 23.2356 59.9399 23.4424 60.767C23.5113 61.2495 23.8559 62.6969 24.1316 64.42C24.2695 64.9024 24.3384 65.316 24.4073 65.3849V65.5228H24.4762H24.5452L24.4762 64.9714C24.3384 64.1443 24.4762 62.0766 24.6141 60.9738C25.0276 58.9061 25.4412 57.5276 26.3372 55.7356C26.7507 54.8396 27.1643 54.2193 28.5427 51.8069C29.3009 50.4974 29.3009 50.4974 29.7144 49.6703C29.9212 49.1878 30.1969 48.7054 30.2658 48.4986L30.3347 48.154H30.5415C30.8861 48.154 30.8861 48.154 30.8172 49.4635C30.7483 50.7731 30.7483 51.0488 30.5415 52.3583C30.4726 53.1854 30.2658 54.6328 30.128 55.3221C29.6455 57.7344 29.3698 59.0439 28.9563 60.2156C28.8874 60.5602 28.7495 60.9049 28.7495 61.0427C28.7495 61.1116 28.6117 61.4563 28.5427 61.8009C27.8535 63.8686 27.3021 66.0052 27.0264 67.3148C26.8196 68.2797 26.7507 68.6243 26.6818 69.4514C26.6129 70.2096 26.6129 71.4502 26.7507 72.0016C26.8196 72.3462 26.7507 72.4151 26.475 72.484L26.2683 72.553L26.1993 72.3462ZM41.7071 61.8009V51.5313H42.3275H42.9478V61.8009V72.0705H42.3275H41.7071V61.8009ZM107.047 61.8009V51.5313H107.667H108.287V61.8009V72.0705H107.667H107.047V61.8009ZM125.932 56.4938C125.863 56.4248 125.587 55.8734 125.38 55.3221C125.174 54.7017 124.829 53.9436 124.622 53.53C124.416 53.1165 124.278 52.8408 124.278 52.7719C124.278 52.7719 124.071 52.4273 123.864 52.0137C123.382 51.2556 122.417 49.8082 121.176 48.0161C119.384 45.397 118.075 43.3293 117.661 42.5712C116.765 40.917 115.869 38.0222 115.869 36.9194C115.869 36.6437 115.869 36.5748 116.007 36.5059C116.283 36.3681 116.283 36.437 116.972 37.2641C117.247 37.5398 118.557 38.9182 119.867 40.2278C121.245 41.6062 122.486 42.9158 122.761 43.1915C123.451 43.9497 124.209 45.1903 124.622 46.2931C124.691 46.4998 124.829 46.7066 124.829 46.8444C124.967 47.1201 125.243 48.0851 125.449 48.8432C125.587 49.3257 125.725 49.7392 125.794 49.8082L125.863 50.0149V49.8082C125.794 49.4635 125.656 48.154 125.518 46.4998C125.449 44.9146 125.449 44.57 125.656 41.6062C125.725 41.0549 125.725 40.2278 125.794 39.7453C125.932 38.229 126.001 37.1951 126.139 35.6788C126.276 33.6111 126.139 32.3705 125.587 30.7163C125.312 29.9582 125.312 29.9582 125.449 29.8203C125.518 29.7514 125.656 29.6825 125.656 29.6825C125.932 29.6825 127.241 31.6123 127.862 32.9908C129.516 36.2991 130.136 39.0561 129.929 42.5023C129.792 44.7767 129.516 46.0174 128.689 48.5675C128.137 50.3596 127.793 51.3934 127.655 51.8069C127.172 53.53 127.035 54.0125 126.621 55.5288C126.483 56.0113 126.345 56.4938 126.345 56.5627C126.208 56.7005 126.07 56.6316 125.932 56.4938ZM23.6492 56.4248C23.5802 56.4248 23.5113 56.2181 23.5113 55.9424C23.4424 55.7356 23.3045 55.2531 23.2356 54.9085C23.0978 54.5639 22.9599 54.0814 22.9599 53.8747C22.6842 52.9097 22.2707 51.4623 21.9261 50.5663C21.3058 48.7054 20.7544 46.7755 20.5476 45.7417C20.1341 44.1564 20.203 44.1564 20.203 41.5373C20.203 39.125 20.203 38.9182 20.3408 38.229C20.6854 36.3681 21.4436 34.2314 22.1328 32.9219C22.6842 31.8191 23.7181 30.3028 24.2005 29.8203L24.3384 29.6135L24.5452 29.7514C24.683 29.7514 24.7519 29.8203 24.7519 29.8203C24.7519 29.8892 24.6141 30.1649 24.5452 30.5785C23.9938 32.1637 23.9249 32.9219 23.9249 34.7139C23.9938 35.472 23.9938 36.437 24.0627 36.8505C24.1316 37.2641 24.2005 38.2979 24.2695 39.1939C24.2695 40.021 24.4073 41.6062 24.4762 42.709C24.6141 44.6389 24.6141 44.8457 24.4073 47.1891C24.2695 49.05 24.2005 49.8082 24.2005 49.8771H24.2695L24.4073 49.3946C24.4762 49.1878 24.6141 48.6365 24.7519 48.2918C25.3033 46.4309 26.0615 44.7767 26.7507 43.8118C27.0264 43.4672 28.267 42.1576 29.5766 40.8481C32.3335 38.0222 32.9538 37.333 33.3674 36.9194C33.712 36.5059 33.7809 36.437 33.9877 36.5059H34.1945V37.0573C34.0566 38.5047 33.5052 40.1589 32.6782 41.8819C32.1268 42.9847 31.5754 43.9497 30.1969 46.0174C26.8196 50.9799 25.7169 52.703 25.0966 54.1504C25.0276 54.3571 24.8898 54.6328 24.8209 54.7707C24.8209 54.8396 24.6141 55.2531 24.4762 55.7356C24.2005 56.4938 24.2005 56.4938 23.9249 56.4938C23.787 56.4938 23.6492 56.4938 23.6492 56.4248ZM62.3153 50.6352C62.3153 48.3608 62.3153 48.3608 62.7978 47.8783C63.0735 47.6715 63.6938 47.1891 64.1073 46.8444C66.5886 44.9835 69.4145 43.8118 72.6539 43.3293C73.8945 43.1915 76.3068 43.1915 77.6164 43.3983C81.2693 43.9497 84.7155 45.6038 87.1967 47.9472C87.6792 48.3608 87.6792 48.3608 87.6792 50.6352V52.8408L87.3346 52.5651C84.302 49.8771 81.3382 48.4297 77.4785 47.8094C76.3757 47.6715 73.6188 47.6715 72.516 47.8094C68.6563 48.4297 65.6926 49.8771 62.6599 52.5651L62.3153 52.8408V50.6352ZM40.4665 49.946V49.3257L41.0179 49.1878C41.3625 49.1189 41.7071 48.9811 41.7761 48.9811C41.9139 48.9122 44.1884 48.3608 49.2198 47.0512C50.9429 46.5688 50.9429 46.5688 54.8716 46.5688H58.8691V47.1891V47.8094H54.9405C51.1497 47.8094 50.9429 47.8094 50.4605 47.9472C49.4266 48.2918 40.6044 50.5663 40.5354 50.5663H40.4665V49.946ZM109.114 50.4974C108.977 50.4285 106.909 49.8771 104.566 49.2568C102.153 48.6365 99.9476 48.0851 99.603 47.9472C99.0516 47.8094 99.0516 47.8094 95.054 47.8094H91.1254V47.1891V46.5688H95.054C99.0516 46.5688 99.0516 46.5688 100.775 47.0512C104.841 48.0851 108.081 48.9122 108.218 48.9811C108.287 48.9811 108.632 49.1189 108.977 49.1878L109.528 49.3257V49.946V50.5663H109.459C109.39 50.5663 109.252 50.4974 109.114 50.4974ZM41.7071 44.3632V40.917H42.3275H42.9478V44.3632V47.8094H42.3275H41.7071V44.3632ZM107.047 44.3632V40.917H107.667H108.287V44.3632V47.8094H107.667H107.047V44.3632ZM46.0493 43.1226V39.6764H46.6697H47.29V43.1226V46.5688H46.6697H46.0493V43.1226ZM102.705 43.1226V39.6764H103.325H103.945V43.1226V46.5688H103.325H102.705V43.1226ZM51.2186 41.8819V38.4358H51.8389H52.4592V41.8819V45.3281H51.8389H51.2186V41.8819ZM56.3879 41.8819V38.4358H57.0082H57.6285V41.8819V45.3281H57.0082H56.3879V41.8819ZM92.366 41.8819V38.4358H92.9863H93.6066V41.8819V45.3281H92.9863H92.366V41.8819ZM97.5353 41.8819V38.4358H98.1556H98.7759V41.8819V45.3281H98.1556H97.5353V41.8819ZM84.3709 44.501C83.8884 44.2253 83.8884 44.2253 83.8884 40.3656V36.5748C84.0263 36.5748 84.7844 37.0573 84.8533 37.1262C84.8533 37.1951 84.8533 38.9182 84.8533 40.9859V44.7767L84.3709 44.501ZM65.1412 40.8481C65.1412 37.0573 65.1412 37.0573 65.348 36.9194C65.4169 36.8505 65.6926 36.7127 65.8304 36.6437L66.175 36.437V40.2278C66.175 44.0875 66.175 44.0875 65.6926 44.3632L65.1412 44.7078V40.8481ZM80.7179 42.778L80.0976 42.5712V38.7115V34.9207L80.3733 34.9896C80.5801 35.0585 80.8558 35.1274 80.9936 35.1964L81.3382 35.3342V39.1939V42.9847C81.3382 42.9847 81.0625 42.8469 80.7179 42.778ZM68.7252 39.0561C68.7252 36.9884 68.7252 35.2653 68.7941 35.2653C68.7941 35.1964 69.0698 35.1274 69.4145 35.0585L69.9658 34.8517V38.6425V42.5023L69.3455 42.709L68.7252 42.9158V39.0561ZM123.106 41.4684C122.279 40.3656 121.314 39.4696 119.384 37.7465C115.387 34.1625 114.697 33.4733 113.319 31.6812C111.734 29.5446 111.113 28.304 110.769 26.0984C110.7 25.547 110.7 25.4781 110.975 25.4781C111.113 25.4781 111.251 25.547 111.665 26.1674C112.561 27.3391 114.008 28.6486 116.076 30.2338C117.868 31.5434 118.212 31.8191 118.902 32.4394C120.073 33.4043 120.831 34.3003 121.521 35.541C121.727 35.8167 121.934 36.0924 121.934 36.0924H122.003L121.934 35.9545C121.865 35.6788 121.383 34.3003 121.245 33.9557C121.038 32.9908 120.763 31.888 120.487 30.8542C120.418 30.2338 120.28 29.6825 120.211 29.5446C120.211 29.3378 120.073 28.9932 120.073 28.7175C119.66 26.8566 119.384 25.8917 118.971 24.9957C118.764 24.4443 118.075 23.0658 117.661 22.3766C117.523 22.2387 117.385 21.963 117.316 21.8252C117.179 21.5495 117.179 21.4805 117.247 21.3427C117.316 21.2049 117.385 21.1359 117.454 21.1359C117.661 21.1359 118.971 22.0319 119.729 22.6522C121.245 24.0307 122.279 25.2713 123.037 26.7877C123.451 27.6837 123.52 27.8215 123.657 28.4418C124.416 30.7163 124.553 32.5773 124.416 35.8167C124.209 38.2979 124.209 40.3656 124.278 41.3306C124.347 42.1576 124.347 42.1576 124.209 42.3644C124.14 42.4333 124.002 42.5023 124.002 42.5023C124.002 42.5023 123.588 42.0198 123.106 41.4684ZM25.8547 42.2955C25.7169 42.1576 25.7169 42.0887 25.7858 41.3995C25.8547 40.2967 25.8547 39.2628 25.7169 36.8505C25.5101 32.8529 25.6479 31.1988 26.1304 29.2689C26.6818 26.9944 27.9224 24.9957 29.6455 23.3415C30.4037 22.6522 30.6794 22.3766 31.7821 21.6184L32.6092 21.067L32.816 21.2738L33.0228 21.4805L32.4025 22.4455C31.024 24.7889 30.8172 25.4092 30.128 28.4418C29.9901 29.0621 29.7834 29.9582 29.7144 30.3028C29.5077 31.1988 29.0252 33.1286 28.9563 33.3354C28.9563 33.4043 28.8874 33.6111 28.8184 33.8179C28.6806 34.3003 28.336 35.4031 28.1981 35.7477L28.0603 36.0234H28.1292C28.1981 36.0234 28.267 35.9545 28.336 35.8167C29.6455 33.68 30.4037 32.9219 33.5052 30.5785C34.4012 29.8892 35.3662 29.1311 35.6419 28.9243C36.7446 28.0972 38.192 26.5809 38.6745 25.7538C38.8813 25.4781 38.9502 25.4092 39.0881 25.4092C39.3637 25.4092 39.4327 25.547 39.3637 25.9606C39.0191 28.1661 38.3299 29.6825 36.8136 31.6812C35.5729 33.1976 34.4702 34.3003 32.1957 36.3681C31.6443 36.8505 30.8861 37.5398 30.4726 37.8844C28.9563 39.1939 27.6467 40.5035 26.8886 41.4684C26.475 42.0198 26.0615 42.4333 26.0615 42.4333C25.9926 42.4333 25.9236 42.3644 25.8547 42.2955ZM76.9271 41.9509L76.3068 41.8819V38.0222V34.2314H76.7893C76.9961 34.3003 77.3407 34.3003 77.4096 34.3693H77.5474V38.229V42.0198C77.5474 42.0198 77.2717 41.9509 76.9271 41.9509ZM72.516 38.1601V34.3003H72.9296C73.2053 34.2314 73.4809 34.2314 73.5499 34.2314H73.7566V38.0222V41.813H73.6877C73.6188 41.8819 73.3431 41.8819 73.0674 41.8819L72.516 41.9509V38.1601ZM40.4665 39.3318V38.7115L41.0179 38.5736C41.3625 38.5047 41.7071 38.3668 41.7761 38.3668C41.9139 38.2979 44.1884 37.7465 49.2198 36.437C50.9429 35.9545 50.9429 35.9545 54.8716 35.9545H58.8691V36.5748V37.1951H54.9405C51.1497 37.1951 50.9429 37.1951 50.4605 37.333C49.4266 37.6776 40.6044 39.9521 40.5354 39.9521H40.4665V39.3318ZM109.114 39.8832C108.977 39.8142 106.909 39.2628 104.566 38.6425C102.153 38.0222 99.9476 37.4708 99.603 37.333C99.0516 37.1951 99.0516 37.1951 95.054 37.1951H91.1254V36.5748V35.9545H95.054C99.0516 35.9545 99.0516 35.9545 100.775 36.437C104.841 37.4708 108.081 38.2979 108.218 38.3668C108.287 38.3668 108.632 38.5047 108.977 38.5736L109.528 38.7115V39.3318V39.9521H109.459C109.39 39.9521 109.252 39.8832 109.114 39.8832ZM62.3153 35.7477C62.3153 33.4733 62.3153 33.4733 62.7978 32.9908C63.0735 32.784 63.6938 32.3016 64.1073 31.9569C66.5886 30.096 69.4145 28.9243 72.6539 28.4418C73.8945 28.304 76.3068 28.304 77.6164 28.5108C81.2693 29.0621 84.7155 30.7163 87.1967 33.0597C87.6792 33.4733 87.6792 33.4733 87.6792 35.7477V37.9533L87.3346 37.6776C84.302 34.9896 81.3382 33.5422 77.4785 32.9219C76.3757 32.784 73.6188 32.784 72.516 32.9219C68.6563 33.5422 65.6926 34.9896 62.6599 37.6776L62.3153 37.9533V35.7477ZM64.1073 30.1649C64.5209 25.6849 67.4157 21.8941 71.6889 20.5156C72.3782 20.3088 73.5499 20.0332 73.8945 20.0332C74.377 20.0332 74.5148 19.5507 74.7216 18.1722C74.7905 17.483 74.9283 15.7599 74.9283 15.4153V15.2085H74.9973H75.0662L75.1351 16.518C75.273 18.4479 75.4108 19.6885 75.6176 19.9642C75.6865 19.9642 75.8243 20.0332 75.9622 20.0332C76.3757 20.0332 77.5474 20.3088 78.3056 20.5156C78.5813 20.6535 79.2705 20.9292 79.753 21.1359C83.0613 22.7901 85.3358 26.0984 85.7494 29.8892C85.8183 30.3028 85.8183 30.6474 85.8183 30.7163H85.7494L85.3358 30.3717C82.9235 28.6486 80.0287 27.4769 76.9271 27.0634C76.1 26.9255 73.8256 26.9255 73.0674 27.0634C69.7591 27.4769 67.14 28.5797 64.2452 30.6474L64.1073 30.7163V30.1649ZM31.4375 30.0271C31.2308 29.8892 31.2308 29.8892 31.3686 29.3378C31.92 26.7877 32.9538 24.0307 33.9188 22.4455C35.4351 19.9642 38.4677 17.6208 42.1896 16.1045C43.3613 15.5531 44.1884 15.3463 44.3952 15.4153H44.4641V15.622C44.4641 15.7599 44.2573 15.9667 43.637 16.587C42.5342 17.7587 42.3964 17.9654 41.4315 19.4128C38.6056 23.6861 37.5028 25.1335 36.4 26.1674C35.504 27.0634 31.7821 30.1649 31.6443 30.1649C31.6443 30.1649 31.5065 30.096 31.4375 30.0271ZM117.868 29.7514C115.938 28.2351 114.215 26.7187 113.526 26.0984C112.561 25.0646 111.32 23.4104 109.046 19.9642C107.598 17.7587 107.116 17.2073 106.22 16.3802L105.53 15.8288L105.668 15.5531C105.737 15.4153 105.875 15.3463 105.875 15.3463C105.875 15.3463 106.151 15.4153 106.495 15.5531C109.252 16.587 111.458 17.7587 113.25 19.2061C114.146 20.0332 115.455 21.4116 115.869 22.0319C116.283 22.6522 116.765 23.4793 117.041 24.1686C117.454 25.1335 117.454 25.1335 117.937 26.443C118.143 27.0634 118.695 28.9932 118.764 29.4757C118.833 29.8892 118.833 29.9582 118.695 30.0271C118.626 30.096 118.488 30.1649 118.488 30.1649C118.419 30.1649 118.212 29.9582 117.868 29.7514Z" fill="#1A1A1A"/>
</svg>
