<svg width="120" height="120" viewBox="0 0 120 120" fill="none" xmlns="http://www.w3.org/2000/svg">
<path d="M59.9975 74.9501C68.2546 74.9501 74.9482 68.2564 74.9482 59.9994C74.9482 51.7424 68.2546 45.0488 59.9975 45.0488C51.7405 45.0488 45.0469 51.7424 45.0469 59.9994C45.0469 68.2564 51.7405 74.9501 59.9975 74.9501Z" fill="#121212"/>
<path d="M76.996 86.6388C79.99 86.6388 82.4172 84.2116 82.4172 81.2176C82.4172 78.2235 79.99 75.7964 76.996 75.7964C74.0019 75.7964 71.5748 78.2235 71.5748 81.2176C71.5748 84.2116 74.0019 86.6388 76.996 86.6388Z" fill="#121212"/>
<path d="M64.9684 14.9916C54.7304 13.8617 44.9128 16.2384 36.7153 21.1612C35.0136 19.6761 32.858 18.6767 30.4432 18.4103C24.1522 17.7153 18.4882 22.2531 17.7941 28.5441C17.419 31.9384 18.5679 35.1496 20.6927 37.4964C17.6926 42.73 15.6955 48.6523 14.9915 55.0313C12.246 79.8883 30.1723 102.264 55.0303 105.008C79.8874 107.753 102.264 89.8265 105.008 64.9685C107.752 40.1114 89.8255 17.7352 64.9684 14.9916ZM23.3729 29.1603C23.7272 25.95 26.6168 23.6358 29.8262 23.9901C30.5339 24.068 31.198 24.27 31.7997 24.5709C31.7961 24.5736 31.7933 24.5763 31.7897 24.5781C32.9432 25.1499 33.8665 26.0868 34.431 27.2212C34.4382 27.2357 34.4455 27.2502 34.4527 27.2647C34.4727 27.3055 34.4926 27.3472 34.5116 27.3888C34.5415 27.4541 34.5705 27.5202 34.5986 27.5873C34.6023 27.5963 34.6059 27.6054 34.6095 27.6145C34.9602 28.4825 35.1079 29.4475 34.9973 30.4433C34.643 33.6536 31.7535 35.9678 28.5441 35.6135C25.3337 35.2592 23.0187 32.3706 23.3729 29.1603ZM99.4283 64.3523C97.0245 86.1287 77.4228 101.832 55.6464 99.4284C33.8701 97.0245 18.1665 77.4228 20.5704 55.6465C21.1729 50.1918 22.8547 45.1185 25.3791 40.6143C26.1873 40.8979 27.0399 41.0954 27.9279 41.1933C34.219 41.8883 39.883 37.3505 40.5771 31.0595C40.781 29.211 40.5327 27.416 39.922 25.786C47.0385 21.6025 55.516 19.5946 64.3523 20.5704C86.1277 22.9752 101.832 42.5769 99.4283 64.3523Z" fill="#121212"/>
<path d="M59.9975 90.0303C55.9436 90.0303 52.0094 89.2357 48.3052 87.669C44.7279 86.1558 41.5158 83.9903 38.7585 81.233C36.0013 78.4748 33.8357 75.2636 32.3225 71.6863C30.7559 67.9813 29.9612 64.0479 29.9612 59.994C29.9612 55.9401 30.7559 52.0058 32.3225 48.3017C33.8357 44.7244 36.0013 41.5122 38.7585 38.755C41.5158 35.9977 44.7279 33.8321 48.3052 32.3189C52.0103 30.7523 55.9446 29.9576 59.9975 29.9576C64.0514 29.9576 67.9857 30.7523 71.6899 32.3189C75.2672 33.8321 78.4793 35.9977 81.2366 38.755C83.9938 41.5122 86.1594 44.7244 87.6726 48.3017C89.2392 52.0067 90.0339 55.941 90.0339 59.994C90.0339 64.9821 88.7853 69.9239 86.4231 74.2841C85.7082 75.6043 84.0581 76.0945 82.738 75.3796C81.4178 74.6647 80.9276 73.0147 81.6425 71.6945C83.5752 68.1271 84.5973 64.0805 84.5973 59.994C84.5973 46.4287 73.5619 35.3933 59.9966 35.3933C46.4314 35.3933 35.396 46.4287 35.396 59.994C35.396 73.5592 46.4314 84.5946 59.9966 84.5946C62.2719 84.5946 64.5235 84.2847 66.69 83.674C68.1352 83.2663 69.6366 84.108 70.0444 85.5524C70.4521 86.9976 69.6113 88.499 68.166 88.9067C65.5202 89.6516 62.772 90.0303 59.9975 90.0303Z" fill="#121212"/>
</svg>
