<svg width="384" height="120" viewBox="0 0 384 120" fill="none" xmlns="http://www.w3.org/2000/svg">
<g clip-path="url(#clip0_2598_2655)">
<path fill-rule="evenodd" clip-rule="evenodd" d="M11 60.2772C11.0842 72.0198 15.68 83.2801 23.8358 91.7265L26.5956 94.3373C29.0909 96.7435 33.7221 99.3742 36.7913 100.917C48.2048 106.628 63.5009 106.647 74.9693 100.992C77.3595 99.8004 79.661 98.4391 81.8563 96.9182C95.4606 87.688 103.58 69.083 99.6577 50.7825C99.0856 48.0392 98.231 45.3625 97.1075 42.7954L91.2935 45.2564C91.5979 46.5543 92.7208 49.0852 93.2498 51.3516C95.2111 59.7231 94.2479 69.098 90.6796 76.6358C90.4451 77.135 90.5199 76.9154 90.2954 77.3647L87.3958 82.2967C86.7271 83.2202 86.1232 84.009 85.4844 84.8576C84.7736 85.7099 84.0049 86.5122 83.1838 87.2587C81.7286 88.7943 80.1459 90.2038 78.4527 91.4719C72.993 95.4106 64.9781 98.7253 58.1909 98.7253C50.6302 98.7253 46.0938 98.3958 39.3315 94.9963C37.3081 94.0389 35.3741 92.9029 33.5524 91.6017C28.1855 87.7362 23.8916 82.5667 21.076 76.5809C17.0835 68.489 16.7092 59.8928 18.6356 51.087C19.6038 46.6641 22.7029 40.4741 25.5226 36.9448C25.8869 36.4905 26.2362 36.0113 26.6155 35.582L34.1463 28.7929C43.848 21.7243 56.9333 20.3066 68.5813 24.1404C71.2212 25.0789 73.7554 26.2919 76.1421 27.7596C76.9008 28.2987 77.7097 28.7634 78.5575 29.1474C79.2911 28.6482 81.9112 25.0739 82.1408 24.2253C81.0478 22.7277 74.2407 19.458 72.1596 18.5644C63.0917 14.7655 50.9247 14.8654 41.6122 17.9704L37.7645 19.468C30.4633 22.7227 22.683 28.8528 18.6755 35.5171L16.1802 39.7353C15.9556 40.1596 15.8708 40.2794 15.7111 40.6039C12.8765 46.3297 11 53.9125 11 60.2772Z" fill="white"/>
<path fill-rule="evenodd" clip-rule="evenodd" d="M334.39 60.502L326.49 71.5891C325.777 72.5875 325.238 73.4112 324.539 74.3397C323.84 75.2682 323.172 76.1617 322.468 77.1851L318.476 82.806C317.757 83.7645 317.213 84.6431 316.524 85.5566C315.501 86.9044 302.895 104.346 302.655 105.24H310.486C310.665 104.724 310.959 104.255 311.344 103.867C314.543 99.7188 318.91 93.0046 322.323 88.427C328.502 80.1054 336.212 69.0782 342.286 60.497C342.944 59.5635 343.608 58.7348 344.282 57.7714C344.956 56.8079 345.485 55.9992 346.208 55.0008C346.932 54.0024 347.526 53.2387 348.169 52.2652L358.151 38.143C358.874 37.1796 359.398 36.4058 360.087 35.3775C360.776 34.3491 361.34 33.6952 362.053 32.6518L374.001 15.7591H366.171L362.772 20.6362C362.193 21.4798 361.729 22.1338 361.12 23.0074C360.511 23.881 359.987 24.6098 359.333 25.4734L345.37 45.0668C344.232 46.6842 343.169 48.3016 341.956 49.929C340.743 51.5564 339.576 53.2087 338.463 54.921C337.884 54.4967 331.975 46.0353 331.401 45.2066L310.481 15.7591H302.65C303.229 16.7275 303.87 17.6563 304.572 18.5396L308.464 24.0307C309.133 25.0291 309.817 25.8578 310.526 26.8961L332.394 57.6116C333.117 58.5342 333.784 59.4994 334.39 60.502Z" fill="white"/>
<path fill-rule="evenodd" clip-rule="evenodd" d="M180.535 97.4175C179.327 96.6088 149.718 66.707 147.153 64.1411C146.155 63.1427 136.898 53.4134 135.8 53.1189C135.8 55.0607 135.8 56.9976 135.8 58.9395C135.8 62.4339 135.555 61.4904 137.422 63.3574L176.453 102.394C180.086 106.029 177.711 105.245 186.793 105.245V15.7591H180.535V97.4175Z" fill="white"/>
<path fill-rule="evenodd" clip-rule="evenodd" d="M242.063 60.7266V104.576C242.063 105.075 242.218 105.245 242.737 105.245H248.551V62.7384C248.551 61.6851 249.659 60.7865 250.592 59.6384C251.431 58.64 252.124 57.6865 252.973 56.6432L271.907 33.3008C273.509 31.2541 274.996 29.5319 276.603 27.4852C277.422 26.4469 278.1 25.6581 278.914 24.6498L286.1 15.7591C284.309 15.7591 282.522 15.7591 280.73 15.7591C277.237 15.7591 278.34 15.3647 276.648 17.2567L262.934 34.1994C262.41 34.8783 262.151 35.1179 261.622 35.7968L249.225 51.1221C248.372 52.1954 247.563 53.1189 246.705 54.1922C245.846 55.2654 242.063 59.5785 242.063 60.7266Z" fill="white"/>
<path d="M124.845 15.7591H118.582V105.245H124.845V15.7591Z" fill="white"/>
<path fill-rule="evenodd" clip-rule="evenodd" d="M237.343 54.911C237.882 54.1023 240.701 50.6578 241.37 50.2136L224.402 29.8014C223.988 29.3372 223.828 29.2224 223.454 28.7332C223.08 28.2439 222.99 28.199 222.631 27.7697L216.347 20.2019C215.454 19.0987 213.288 16.7974 212.739 15.7591H204.465C204.645 16.428 207.958 20.2219 208.432 20.751C208.906 21.2802 209.006 21.4399 209.43 21.9691C209.855 22.4982 210.124 22.628 210.503 23.1671C211.152 24.0008 211.881 24.8045 212.5 25.6282C216.362 30.6201 223.065 37.8085 226.912 42.7556L230.995 47.6227C231.703 48.4614 232.282 49.295 233.021 50.0688C233.76 50.8425 234.383 51.6712 235.057 52.5049C235.676 53.2237 236.604 54.4168 237.343 54.911Z" fill="white"/>
<path fill-rule="evenodd" clip-rule="evenodd" d="M342.015 71.0201L366.099 104.871C366.838 105.549 372.657 105.245 373.999 105.245C373.76 104.351 371.354 101.211 370.676 100.293L365.371 92.8499C364.697 91.9264 364.303 91.2674 363.614 90.3539L356.627 80.5497C355.419 78.7975 354.336 77.3149 353.089 75.5877C352.44 74.6891 351.981 73.9603 351.332 73.0917L346.042 65.6487C345.368 66.098 342.638 70.0916 342.015 71.0201Z" fill="white"/>
<path fill-rule="evenodd" clip-rule="evenodd" d="M39.127 48.1269L67.9775 77.0803C69.0655 76.7458 69.7192 75.6726 70.4379 74.9537C71.1565 74.2349 72.2295 73.5859 72.504 72.5476L43.7083 43.6691L39.127 48.1269Z" fill="white"/>
</g>
<defs>
<clipPath id="clip0_2598_2655">
<rect width="384" height="120" fill="white"/>
</clipPath>
</defs>
</svg>
