<svg width="120" height="120" viewBox="0 0 120 120" fill="none" xmlns="http://www.w3.org/2000/svg">
<g clip-path="url(#clip0_2598_2694)">
<path d="M59.3375 42.5292C62.4143 44.6632 68.4583 48.9526 68.5573 54.5462C68.5509 57.6089 66.5491 59.3823 63.2936 62.0188C61.2596 63.6663 58.9662 65.5183 57.4412 68.0558C57.2324 67.662 57.0247 67.2789 56.8224 66.9044C54.5031 62.6042 52.9685 59.7589 53.5173 54.8013C54.1921 49.4228 57.438 44.9268 59.3364 42.5292H59.3375ZM58.9866 39.2708C58.7283 39.2772 58.4776 39.3902 58.2957 39.5979C56.8008 41.4865 51.8051 47.1565 50.8882 54.4838C49.8894 63.4382 54.8378 66.7161 58.6261 76.9575C56.2208 64.6617 71.207 64.4142 71.2037 54.5236C71.0778 46.456 61.8246 41.1733 59.5258 39.4203C59.3601 39.3149 59.1717 39.2654 58.9866 39.2718V39.2708Z" fill="white"/>
<path d="M58.2224 30.6833C40.1528 31.2031 25.8748 46.3226 26.3946 64.3906C26.8542 80.414 38.8001 93.4501 54.0973 95.839C54.9668 95.9746 55.8504 96.0768 56.7437 96.1436C56.8922 95.3763 57.0418 94.3744 57.1311 93.1864C57.3593 90.113 57.1741 85.7838 55.4544 80.9144C54.0252 76.2107 50.5781 72.7735 47.8725 68.1957C44.2661 61.937 43.1221 56.8728 43.1221 53.6746C43.1189 53.1021 42.4236 52.7846 41.7198 52.8051C41.2301 52.818 40.734 52.9966 40.4531 53.3604C37.1319 57.4722 34.647 65.0804 40.0495 73.2965C43.1953 78.1358 49.7386 79.3271 53.289 82.7739C54.5299 86.7598 54.6655 90.3121 54.4869 92.8829C40.6124 90.6833 29.7911 78.8439 29.3746 64.3034C28.9011 47.8797 41.8823 34.1323 58.3106 33.6631C74.7389 33.1896 88.4875 46.1698 88.9578 62.5967C89.384 77.4191 78.8543 90.0581 64.7227 92.7312C64.0845 89.618 63.5647 85.56 64.0576 81.7817C67.5811 79.0365 73.6111 77.0414 77.2271 73.105C81.8817 68.143 80.0651 62.0436 78.6004 58.1728C78.4314 57.7499 78.0579 57.5572 77.6877 57.5669C77.2572 57.5798 76.8375 57.8682 76.7676 58.3934C76.5652 59.915 76.1229 61.8434 75.1328 64.142C72.3939 70.9764 59.6344 68.1247 61.2616 86.6458C61.2584 86.5371 61.268 86.4305 61.2713 86.3251C61.3671 88.4192 61.7771 90.89 62.2377 93.0928C62.4594 94.1549 62.6908 95.1503 62.9028 96.0134C63.7465 95.9176 64.5838 95.7885 65.4071 95.6292C80.883 92.6354 92.3984 78.7654 91.9281 62.5074C91.4158 44.4394 76.294 30.1625 58.2245 30.6823L58.2224 30.6833ZM49.0326 76.8972C46.3098 75.4681 43.7366 74.1154 42.2579 71.8459C40.1539 68.6477 39.2639 65.3591 39.6083 62.0683C39.7934 60.3056 40.3024 58.8066 40.8814 57.6089C41.4475 60.5596 42.7444 64.5918 45.5791 69.5107L45.5855 69.5237L45.592 69.5366C46.5875 71.2207 47.6529 72.7219 48.6818 74.1779C49.6547 75.551 50.5641 76.8337 51.325 78.1401C50.5544 77.6968 49.7763 77.2868 49.0326 76.8961V76.8972ZM71.0884 71.3003C73.5131 69.9175 76.2553 68.3528 77.5554 65.2203C77.6081 67.351 77.0356 69.4408 75.2996 71.2939L75.2899 71.3036L75.2803 71.3132C73.3883 73.374 70.5589 74.9085 67.8232 76.3947C66.6824 77.0134 65.5309 77.6387 64.4461 78.3102C65.6568 74.4006 68.3237 72.879 71.0884 71.3003Z" fill="white"/>
<path d="M20.2627 34.3787C21.3173 34.0849 22.3516 34.2862 23.3675 34.9813C24.3867 35.6754 24.9474 36.5643 25.0529 37.649C25.1583 38.7338 24.7946 39.8831 23.9637 41.1023L22.2149 43.6635L25.2272 45.7199L24.5384 46.7293L15 40.2156L17.4376 36.645C18.2684 35.429 19.209 34.6725 20.2627 34.3787ZM23.9175 37.9321C23.8453 37.1497 23.431 36.504 22.6787 35.9864C21.9071 35.4613 21.143 35.3042 20.3875 35.5216C19.632 35.7389 18.9335 36.3211 18.29 37.2649L16.5594 39.8002L21.3303 43.0555L23.0608 40.5201C23.7044 39.5764 23.9896 38.7133 23.9175 37.931V37.9321Z" fill="white"/>
<path d="M35.3644 33.4113C34.3065 33.4705 33.3174 33.2617 32.4016 32.785C31.4857 32.3083 30.7335 31.597 30.1437 30.6564C29.5539 29.7159 29.2429 28.7269 29.2149 27.696C29.188 26.6651 29.428 25.6858 29.9446 24.7561C30.4612 23.8306 31.2038 23.0612 32.1745 22.4564C33.1431 21.8484 34.1526 21.518 35.1986 21.4589C36.2447 21.4007 37.2305 21.6095 38.155 22.0916C39.0773 22.5716 39.836 23.2829 40.4258 24.2234C41.0155 25.1639 41.3233 26.1561 41.3545 27.1956C41.3814 28.2362 41.1415 29.2123 40.6313 30.1291C40.1212 31.046 39.3819 31.8079 38.4133 32.4137C37.4393 33.0196 36.4255 33.3532 35.3644 33.4113ZM39.6014 29.6513C40.0061 28.9099 40.1944 28.12 40.1578 27.2785C40.1244 26.437 39.8694 25.6331 39.3883 24.8701C38.9105 24.1072 38.2992 23.5228 37.5555 23.1279C36.8119 22.7287 36.0187 22.5511 35.1771 22.5931C34.3323 22.6361 33.5251 22.8976 32.7503 23.3819C31.9754 23.8661 31.3846 24.4806 30.9734 25.2242C30.5623 25.9689 30.3718 26.762 30.402 27.6067C30.4321 28.4515 30.685 29.2553 31.1629 30.0215C31.6407 30.7877 32.2552 31.3656 33.0021 31.7605C33.749 32.1565 34.5486 32.3309 35.3967 32.2857C36.2447 32.2394 37.054 31.9779 37.83 31.4904C38.6081 31.0029 39.1989 30.3917 39.6036 29.6503L39.6014 29.6513Z" fill="white"/>
<path d="M51.447 26.4036C50.4644 26.0334 49.6519 25.4405 49.0094 24.628C48.3637 23.8156 47.9623 22.8589 47.8073 21.7591C47.6491 20.6593 47.7675 19.6295 48.156 18.6685C48.5445 17.7075 49.1633 16.9101 50.007 16.2795C50.8508 15.6489 51.8387 15.2507 52.9688 15.0882C53.8179 14.9645 54.6207 14.9946 55.3795 15.1765C56.1382 15.3583 56.8065 15.6844 57.3855 16.1547L56.729 17.0339C55.7056 16.2591 54.5142 15.9664 53.155 16.1644C52.2499 16.2946 51.4588 16.6185 50.7776 17.1382C50.0964 17.658 49.5959 18.308 49.2817 19.0849C48.9674 19.8651 48.8706 20.6991 49.0008 21.5923C49.1278 22.4855 49.4539 23.2603 49.9769 23.9199C50.4999 24.5796 51.1586 25.0606 51.9604 25.3684C52.7589 25.6762 53.6123 25.7633 54.5142 25.6363C55.8864 25.4394 56.9464 24.8196 57.6998 23.7811L58.579 24.4375C58.1561 25.0552 57.604 25.5567 56.9206 25.9506C56.2372 26.3434 55.4731 26.5984 54.6229 26.7211C53.4853 26.8803 52.4307 26.7749 51.4492 26.4047L51.447 26.4036Z" fill="white"/>
<path d="M74.3518 18.0293L70.387 17.1598L68.141 27.4098L66.9658 27.1515L69.2118 16.9015L65.2471 16.032L65.4741 15L74.581 16.9962L74.3507 18.0282L74.3518 18.0293Z" fill="white"/>
<path d="M79.1586 30.9556C78.684 30.0065 78.4838 29.0164 78.558 27.9866C78.6334 26.9568 78.9874 25.9839 79.616 25.0692C80.2477 24.1535 81.029 23.4777 81.9653 23.0429C82.9027 22.6049 83.8971 22.4392 84.9518 22.5479C86.0065 22.6534 87.0041 23.0322 87.9479 23.6821C88.8886 24.3321 89.5956 25.1241 90.0648 26.0636C90.533 26.9998 90.7299 27.9877 90.6589 29.0261C90.5847 30.0646 90.2327 31.0406 89.601 31.9564C88.9693 32.8722 88.1826 33.548 87.2387 33.9859C86.296 34.4239 85.3005 34.5929 84.2587 34.4874C83.2159 34.382 82.2214 34.0053 81.2808 33.3564C80.3402 32.7011 79.6321 31.9015 79.1575 30.9556H79.1586ZM84.2899 33.35C85.1304 33.4285 85.9301 33.2843 86.6888 32.9206C87.4475 32.5547 88.0825 32.0016 88.5958 31.258C89.1059 30.5155 89.3987 29.7234 89.4708 28.8862C89.5429 28.0458 89.389 27.2495 89.0166 26.4908C88.6443 25.7321 88.0814 25.0951 87.3291 24.5785C86.5769 24.0588 85.7783 23.7596 84.9346 23.6789C84.0908 23.5971 83.2847 23.7392 82.5196 24.0986C81.7544 24.4623 81.1173 25.0122 80.6061 25.7547C80.0927 26.4972 79.8064 27.2893 79.7365 28.1329C79.6708 28.9766 79.8237 29.7762 80.2025 30.537C80.5813 31.2989 81.1442 31.9359 81.8964 32.4557C82.6519 32.9722 83.4472 33.2714 84.2878 33.3489L84.2899 33.35Z" fill="white"/>
<path d="M96.9239 42.0837L95.5312 39.8411L91.0327 42.639L90.4053 41.6307L100.214 35.5312L100.841 36.5396L96.4406 39.274L97.8365 41.5166L104.301 42.1009L105 43.2223L97.9689 42.5432L95.3214 49.5337L94.582 48.3413L96.9228 42.0848L96.9239 42.0837Z" fill="white"/>
<path d="M18.5016 70.7278C18.394 70.5642 18.2089 70.1973 18.1346 69.7044C17.9743 68.5982 18.6189 67.7696 19.7403 67.606C20.8714 67.4424 21.8088 68.0956 21.981 69.2912C22.0391 69.6861 21.9907 70.0488 21.9197 70.2436L21.3891 70.1661C21.4504 69.9939 21.5032 69.7313 21.4504 69.3676C21.3267 68.5261 20.6336 68.1623 19.8759 68.2732C19.0279 68.3969 18.5845 69.0189 18.6889 69.7464C18.7449 70.1252 18.8708 70.363 18.9816 70.5384L18.5006 70.7267L18.5016 70.7278Z" fill="white"/>
<path d="M23.554 75.8803L20.0101 76.9682L19.8131 76.3247L22.8523 75.3906L22.3465 73.742L19.3073 74.6761L19.1104 74.0315L22.6543 72.9435L23.554 75.8803Z" fill="white"/>
<path d="M23.3338 82.352C23.0443 82.4941 22.7698 82.6447 22.56 82.79L22.2952 82.2476L22.6923 81.9948L22.6827 81.9732C22.3318 81.9151 21.9218 81.6709 21.6904 81.1963C21.3611 80.5216 21.6656 79.9448 22.1499 79.7112C22.9539 79.3163 23.7459 79.8156 24.3691 81.107L24.4369 81.0725C24.7048 80.9402 25.1708 80.6195 24.8318 79.9415C24.6779 79.6241 24.4283 79.3464 24.1571 79.1893L24.4961 78.8536C24.8039 79.0451 25.1181 79.3927 25.3247 79.8124C25.8241 80.8293 25.2505 81.418 24.5886 81.7419L23.3348 82.352H23.3338ZM23.9472 81.3254C23.6394 80.6572 23.1551 79.9663 22.5083 80.2805C22.1112 80.4742 22.0585 80.8261 22.2059 81.1274C22.4211 81.5686 22.8344 81.7161 23.1648 81.673C23.2444 81.6612 23.3155 81.6332 23.3714 81.6052L23.9483 81.3243L23.9472 81.3254Z" fill="white"/>
<path d="M26.0002 88.0006C25.8312 87.9016 25.5008 87.6551 25.221 87.2451C24.586 86.324 24.7991 85.2941 25.7322 84.6538C26.6717 84.0071 27.8028 84.1793 28.4905 85.1747C28.7155 85.504 28.8328 85.8494 28.8575 86.056L28.3485 86.2196C28.3269 86.041 28.2591 85.7784 28.0493 85.4771C27.5682 84.7776 26.7826 84.7593 26.1508 85.194C25.4449 85.6815 25.3222 86.4327 25.7376 87.0396C25.9528 87.3538 26.1724 87.5109 26.351 87.6218L26.0002 88.0006Z" fill="white"/>
<path d="M30.4483 92.0102C30.2137 92.2286 29.992 92.4535 29.8349 92.6537L29.4216 92.2103L29.7272 91.8531L29.7122 91.838C29.3581 91.8843 28.8953 91.7702 28.538 91.3817C28.0268 90.8329 28.1527 90.1926 28.5477 89.8257C29.2042 89.2155 30.1039 89.4652 31.0746 90.5187L31.1306 90.4659C31.3491 90.2626 31.701 89.8192 31.1801 89.2704C30.9401 89.011 30.6226 88.8173 30.317 88.7463L30.5452 88.3277C30.8938 88.4202 31.2974 88.6635 31.6149 89.0057C32.3855 89.8343 32.0099 90.565 31.4696 91.0643L30.4494 92.0102H30.4483ZM30.7378 90.8512C30.2481 90.3024 29.5852 89.7783 29.0578 90.269C28.7307 90.5714 28.7834 90.919 29.0148 91.1654C29.3473 91.5259 29.7854 91.5442 30.0899 91.4086C30.1609 91.3742 30.2223 91.3258 30.2686 91.2849L30.7367 90.8501L30.7378 90.8512Z" fill="white"/>
<path d="M33.8676 93.9913C33.3134 94.7155 33.5319 95.3655 34.0646 95.7906C34.4434 96.0898 34.7308 96.2092 34.989 96.2781L34.7856 96.7311C34.5327 96.6665 34.1291 96.5127 33.6642 96.1457C32.771 95.4365 32.7053 94.4196 33.4027 93.5415C34.0958 92.6666 35.1559 92.389 36.0039 93.0605C36.9596 93.8181 36.5495 94.8415 36.1244 95.3752C36.0383 95.4828 35.9705 95.5571 35.9113 95.6066L33.8676 93.9913ZM35.7166 94.8415C35.9845 94.5143 36.2525 93.8805 35.6606 93.4081C35.1214 92.9798 34.508 93.2843 34.1754 93.6179L35.7166 94.8415Z" fill="white"/>
<path d="M39.5642 95.6991L40.2885 96.0962L39.971 98.0558C39.9248 98.3453 39.8419 98.8134 39.7773 99.1093L39.7892 99.1158C39.999 98.9092 40.4607 98.4992 40.7911 98.2161L42.0858 97.0851L42.8165 97.4887L41.2571 100.863L40.6932 100.552L41.4723 98.9619C41.6542 98.5982 41.8512 98.1763 42.0578 97.7728L42.0363 97.7609C41.7866 98.0074 41.552 98.2108 41.0935 98.6143L39.5675 99.9089L39.1456 99.6775L39.4534 97.748C39.5115 97.3875 39.6288 96.8387 39.7149 96.4943L39.6869 96.4793C39.462 96.8548 39.2123 97.2778 38.9971 97.6221L38.0629 99.1104L37.5205 98.8112L39.5642 95.6991Z" fill="white"/>
<path d="M49.4967 99.9789L50.3469 101.824L50.4729 101.852L50.8237 100.275L51.4522 100.417L51.1014 101.994L51.2273 102.022L52.7749 100.713L53.5304 100.882L51.7331 102.206C52.2658 102.388 52.5155 102.782 52.6027 103.405C52.6522 103.784 52.6855 104.194 52.7727 104.511L52.1162 104.364C52.0452 104.121 52.0086 103.797 51.9709 103.461C51.8784 102.82 51.5824 102.565 51.1111 102.459L51.0002 102.435L50.6429 104.034L50.0144 103.892L50.3717 102.293L50.2609 102.268C49.7464 102.154 49.3977 102.271 49.0404 102.81C48.8489 103.096 48.6896 103.359 48.5195 103.556L47.876 103.411C48.0977 103.154 48.3043 102.8 48.5045 102.493C48.8586 101.96 49.2438 101.707 49.8045 101.772L48.7445 99.8088L49.4967 99.9778V99.9789Z" fill="white"/>
<path d="M56.8286 101.184L56.7608 102.743C56.7361 103.326 56.7027 103.699 56.65 104.225L56.6715 104.235C56.9212 103.795 57.0536 103.539 57.328 103.122L58.5667 101.26L59.3556 101.294L59.192 104.998L58.5484 104.97L58.6162 103.401C58.6442 102.797 58.6722 102.483 58.7303 101.881H58.7152C58.4505 102.353 58.2837 102.645 58.0437 103.009C57.6681 103.567 57.2204 104.261 56.8017 104.895L56.0215 104.861L56.1883 101.154L56.8297 101.182L56.8286 101.184Z" fill="white"/>
<path d="M62.9281 102.676L63.2489 102.641C63.8128 102.583 64.1669 102.281 64.1303 101.938C64.0958 101.611 63.7762 101.429 63.3565 101.474C63.0605 101.505 62.7366 101.646 62.4934 101.834L62.2803 101.439C62.629 101.171 63.0444 101.021 63.4695 100.974C64.0334 100.916 64.7459 101.095 64.8223 101.809C64.8718 102.266 64.4833 102.608 64.0797 102.737L64.0829 102.752C64.6372 102.746 65.1279 103.026 65.186 103.566C65.2689 104.358 64.4865 104.749 63.7095 104.832C63.2844 104.878 62.8281 104.811 62.4826 104.663L62.6085 104.189C62.8916 104.312 63.2682 104.38 63.6105 104.342C64.1647 104.284 64.4887 103.979 64.4488 103.615C64.3961 103.119 63.8634 103.039 63.3081 103.097L62.9809 103.132L62.926 102.676H62.9281Z" fill="white"/>
<path d="M68.3649 100.229L68.7469 101.674L70.4419 101.227L70.0599 99.7819L70.7099 99.6097L71.6559 103.194L71.0059 103.366L70.5776 101.746L68.8825 102.192L69.3109 103.813L68.6608 103.985L67.7148 100.402L68.3649 100.23V100.229Z" fill="white"/>
<path d="M74.2504 98.2936L74.7562 99.4343C74.895 99.3482 75.1199 99.2309 75.3018 99.1513C76.0659 98.8123 76.9785 98.7015 77.3789 99.6044C77.5328 99.9552 77.5027 100.261 77.3671 100.542C77.1357 101.023 76.5599 101.367 76.0638 101.59C75.728 101.737 75.404 101.858 75.1328 101.944L73.6348 98.5691L74.2514 98.2947L74.2504 98.2936ZM75.5536 101.249C75.6892 101.215 75.8248 101.163 76.0282 101.07C76.4846 100.867 77.0173 100.447 76.7676 99.8863C76.5061 99.2977 75.8302 99.4397 75.3685 99.6431C75.2082 99.7141 75.0823 99.7884 74.9467 99.8798L75.5536 101.248V101.249Z" fill="white"/>
<path d="M81.9678 93.9881C82.1497 93.7847 82.5037 93.4576 82.8395 93.1929C83.3324 92.8044 84.2052 92.2534 84.7099 92.8937C84.993 93.2542 84.8983 93.7008 84.6239 94.0344L84.6335 94.0473C85.1081 93.7697 85.6043 93.7578 85.9368 94.1797C86.5406 94.9437 85.6538 95.7971 85.0834 96.248C84.7595 96.5041 84.3957 96.7505 84.2332 96.8613L81.9678 93.9892V93.9881ZM83.4196 94.7769L83.8167 94.4627C84.2084 94.1549 84.5195 93.7234 84.245 93.3747C84.0169 93.0852 83.6563 93.1466 83.1269 93.5663C82.9482 93.7083 82.846 93.8062 82.7383 93.9149L83.4196 94.778V94.7769ZM84.471 96.121C84.6314 96.0134 84.7422 95.9359 84.9058 95.8067C85.2663 95.5237 85.7345 95.0276 85.3955 94.5983C85.0629 94.1764 84.5668 94.4261 84.0675 94.8167L83.6822 95.1223L84.471 96.121Z" fill="white"/>
<path d="M86.4425 90.1119L86.9967 89.4985L88.8274 90.2593C89.0986 90.3702 89.5366 90.5617 89.8078 90.6941L89.8175 90.6812C89.6636 90.4283 89.3708 89.8859 89.1728 89.4974L88.371 87.9747L88.9317 87.3549L91.8537 89.6502L91.4221 90.128L90.0542 89.0035C89.7432 88.742 89.3762 88.4515 89.0308 88.1588L89.0157 88.177C89.1976 88.4762 89.3429 88.7506 89.6291 89.2897L90.5353 91.0707L90.2114 91.428L88.4087 90.6822C88.0729 90.5402 87.5671 90.3002 87.2496 90.1366L87.2281 90.1582C87.5424 90.4638 87.8943 90.8028 88.1806 91.0922L89.4128 92.3438L88.9963 92.8033L86.4414 90.1097L86.4425 90.1119Z" fill="white"/>
<path d="M92.6836 85.5761C93.4606 86.0539 94.0859 85.773 94.4529 85.1973C94.7122 84.7905 94.8015 84.4946 94.8446 84.2299L95.316 84.387C95.2794 84.6463 95.1653 85.0617 94.8478 85.561C94.2344 86.522 93.2271 86.6888 92.2864 86.0851C91.3469 85.4814 90.9638 84.458 91.5439 83.5487C92.2003 82.5221 93.2604 82.8277 93.834 83.1946C93.9513 83.2689 94.031 83.3302 94.0869 83.383L92.6846 85.5772L92.6836 85.5761ZM93.3401 83.6531C92.9892 83.4185 92.3295 83.2151 91.9195 83.8532C91.5492 84.4322 91.913 85.0122 92.28 85.3103L93.3401 83.652V83.6531Z" fill="white"/>
<path d="M98.105 78.7987C98.1114 78.9924 98.0705 79.4024 97.8682 79.8587C97.4119 80.882 96.4229 81.2361 95.3876 80.7744C94.3458 80.3095 93.8992 79.255 94.3921 78.1519C94.5556 77.7882 94.7892 77.5073 94.9528 77.3782L95.3596 77.7269C95.2175 77.8409 95.0303 78.0325 94.8817 78.3682C94.5363 79.1452 94.928 79.8231 95.6275 80.1341C96.4099 80.4828 97.1192 80.1955 97.4184 79.524C97.5755 79.1732 97.5938 78.9041 97.5938 78.6954L98.105 78.7998V78.7987Z" fill="white"/>
<path d="M96.4904 72.1483L96.9994 72.2936L96.6852 73.4063L99.7459 74.2725L99.5608 74.9225L96.5001 74.0562L96.1858 75.1689L95.6768 75.0237L96.4904 72.1483Z" fill="white"/>
<path d="M98.9987 69.5721C99.9049 69.6764 100.352 69.1588 100.444 68.4841C100.509 68.0063 100.466 67.6985 100.391 67.4424L100.884 67.3843C100.959 67.634 101.032 68.0623 100.955 68.6444C100.805 69.7754 99.9598 70.349 98.8534 70.2005C97.7471 70.0531 96.9668 69.2826 97.1121 68.2129C97.2757 67.0044 98.3638 66.8355 99.0385 66.928C99.1741 66.9463 99.2732 66.9679 99.3463 66.9926L98.9977 69.5721H98.9987ZM98.7835 67.55C98.367 67.4855 97.6836 67.5812 97.5814 68.3302C97.4888 69.0146 98.0657 69.3837 98.5209 69.4978L98.7824 67.55H98.7835Z" fill="white"/>
</g>
<defs>
<clipPath id="clip0_2598_2694">
<rect width="90" height="90" fill="white" transform="translate(15 15)"/>
</clipPath>
</defs>
</svg>
